<?xml version="1.0" encoding="utf-8"?>
<!-- Generator: Adobe Illustrator 19.0.0, SVG Export Plug-In . SVG Version: 6.00 Build 0)  -->
<svg version="1.1" xmlns="http://www.w3.org/2000/svg" xmlns:xlink="http://www.w3.org/1999/xlink" x="0px" y="0px"
	 viewBox="0 0 64 64" style="enable-background:new 0 0 64 64;" xml:space="preserve">
<style type="text/css">
	.st0{fill:#58595B;}
	.st1{clip-path:url(#SVGID_2_);}
	.st2{fill:#29B17A;}
	.st3{clip-path:url(#XMLID_10_);}
	.st4{fill:#1A2C57;}
</style>
<g id="Layer_2">
	<path id="XMLID_8_" class="st0" d="M64,64H12.4C5.6,64,0,58.4,0,51.6V0h51.6C58.4,0,64,5.6,64,12.4V64z"/>
</g>
<g id="Layer_1">
	<g>
		<defs>
			<path id="SVGID_1_" d="M-17-31.9h97.6c6.6,0,12,5.4,12,12V83.9c0,6.6-5.4,12-12,12H-17c-6.6,0-12-5.4-12-12V-19.9
				C-29-26.5-23.6-31.9-17-31.9z"/>
		</defs>
		<clipPath id="SVGID_2_">
			<use xlink:href="#SVGID_1_"  style="overflow:visible;"/>
		</clipPath>
		<g id="XMLID_5_" class="st1">
			<path id="XMLID_4_" class="st2" d="M32.1,45.3V17.1h5.7L48,29.3l10.2-12.1H64v28.1h-5.2V24.6L48,37.3L37.2,24.7v20.6H32.1z"/>
			<g id="XMLID_6_">
				<defs>
					<path id="XMLID_3_" d="M2.8,15.9h22.6c1.5,0,2.8,1.2,2.8,2.8v23.8c0,1.5-1.2,2.8-2.8,2.8H2.8C1.2,45.2,0,44,0,42.5V18.6
						C0,17.1,1.2,15.9,2.8,15.9z"/>
				</defs>
				<clipPath id="XMLID_10_">
					<use xlink:href="#XMLID_3_"  style="overflow:visible;"/>
				</clipPath>
				<g id="XMLID_7_" class="st3">
					<path id="XMLID_2_" class="st2" d="M16.8,39l-3.4,6.2L0,17.2h6L16.8,39z"/>
					<path id="XMLID_1_" class="st4" d="M21.2,29.7h-5.4l6-12.6h5.4L21.2,29.7z"/>
				</g>
			</g>
		</g>
	</g>
</g>
</svg>
