<svg width="81" height="66" viewBox="0 0 81 66" fill="white" xmlns="http://www.w3.org/2000/svg">
<path d="M0 66V57.5667C0 55.4889 0.488889 53.7625 1.46667 52.3875C2.44444 51.0125 3.81944 49.8972 5.59167 49.0417C8.89167 47.4528 12.4208 46.1389 16.1792 45.1C19.9375 44.0611 24.2 43.5417 28.9667 43.5417C33.7333 43.5417 37.9958 44.0611 41.7542 45.1C45.5125 46.1389 49.0417 47.4528 52.3417 49.0417C54.1139 49.8972 55.4889 51.0125 56.4667 52.3875C57.4444 53.7625 57.9333 55.4889 57.9333 57.5667V66H0ZM5.5 60.5H52.4333V57.5667C52.4333 56.65 52.1736 55.9014 51.6542 55.3208C51.1347 54.7403 50.5083 54.2972 49.775 53.9917C47.1472 52.8306 44.2139 51.7153 40.975 50.6458C37.7361 49.5764 33.7333 49.0417 28.9667 49.0417C24.2 49.0417 20.1972 49.5764 16.9583 50.6458C13.7194 51.7153 10.7861 52.8306 8.15833 53.9917C7.425 54.2972 6.79861 54.7403 6.27917 55.3208C5.75972 55.9014 5.5 56.65 5.5 57.5667V60.5ZM28.9667 38.0417C24.9333 38.0417 21.6333 36.7278 19.0667 34.1C16.5 31.4722 15.2167 28.2028 15.2167 24.2917H14.3C13.8111 24.2917 13.3833 24.1083 13.0167 23.7417C12.65 23.375 12.4667 22.9472 12.4667 22.4583C12.4667 21.9694 12.65 21.5417 13.0167 21.175C13.3833 20.8083 13.8111 20.625 14.3 20.625H15.2167C15.2167 18.1806 15.8278 15.9806 17.05 14.025C18.2722 12.0694 19.8611 10.4806 21.8167 9.25833V12.8333C21.8167 13.2 21.9542 13.5208 22.2292 13.7958C22.5042 14.0708 22.825 14.2083 23.1917 14.2083C23.6194 14.2083 23.9556 14.0708 24.2 13.7958C24.4444 13.5208 24.5667 13.2 24.5667 12.8333V8.06667C25.0556 7.94444 25.7278 7.8375 26.5833 7.74583C27.4389 7.65417 28.2639 7.60833 29.0583 7.60833C29.8528 7.60833 30.6778 7.65417 31.5333 7.74583C32.3889 7.8375 33.0611 7.94444 33.55 8.06667V12.8333C33.55 13.2 33.6722 13.5208 33.9167 13.7958C34.1611 14.0708 34.4972 14.2083 34.925 14.2083C35.2917 14.2083 35.6125 14.0708 35.8875 13.7958C36.1625 13.5208 36.3 13.2 36.3 12.8333V9.25833C38.2556 10.4806 39.8139 12.0694 40.975 14.025C42.1361 15.9806 42.7167 18.1806 42.7167 20.625H43.6333C44.1222 20.625 44.55 20.8083 44.9167 21.175C45.2833 21.5417 45.4667 21.9694 45.4667 22.4583C45.4667 22.9472 45.2833 23.375 44.9167 23.7417C44.55 24.1083 44.1222 24.2917 43.6333 24.2917H42.7167C42.7167 28.2028 41.4333 31.4722 38.8667 34.1C36.3 36.7278 33 38.0417 28.9667 38.0417ZM28.9667 32.5417C31.5333 32.5417 33.55 31.7778 35.0167 30.25C36.4833 28.7222 37.2167 26.7361 37.2167 24.2917H20.7167C20.7167 26.7361 21.45 28.7222 22.9167 30.25C24.3833 31.7778 26.4 32.5417 28.9667 32.5417ZM56.65 43.9083L56.4667 41.25C56.0389 41.0056 55.5958 40.7306 55.1375 40.425C54.6792 40.1194 54.2667 39.8139 53.9 39.5083L51.5167 40.7917L49.5 37.8583L51.8833 36.1167C51.7611 35.8722 51.7 35.6431 51.7 35.4292V34.0542C51.7 33.8403 51.7611 33.6111 51.8833 33.3667L49.5 31.625L51.5167 28.6917L53.9 29.975L55.1833 29.0583C55.6111 28.7528 56.0389 28.4778 56.4667 28.2333L56.65 25.575H60.3167L60.5 28.2333C60.9278 28.4778 61.3556 28.7528 61.7833 29.0583L63.0667 29.975L65.45 28.6917L67.4667 31.625L65.0833 33.3667C65.2056 33.6111 65.2667 33.8403 65.2667 34.0542V35.4292C65.2667 35.6431 65.2056 35.8722 65.0833 36.1167L67.4667 37.8583L65.45 40.7917L63.0667 39.5083C62.7 39.8139 62.2875 40.1194 61.8292 40.425C61.3708 40.7306 60.9278 41.0056 60.5 41.25L60.3167 43.9083H56.65ZM58.4833 38.225C59.4611 38.225 60.2861 37.8889 60.9583 37.2167C61.6306 36.5444 61.9667 35.7194 61.9667 34.7417C61.9667 33.7639 61.6306 32.9389 60.9583 32.2667C60.2861 31.5944 59.4611 31.2583 58.4833 31.2583C57.5056 31.2583 56.6806 31.5944 56.0083 32.2667C55.3361 32.9389 55 33.7639 55 34.7417C55 35.7194 55.3361 36.5444 56.0083 37.2167C56.6806 37.8889 57.5056 38.225 58.4833 38.225ZM66.55 24.0167L65.725 20.8083C65.1139 20.5639 64.4875 20.2278 63.8458 19.8C63.2042 19.3722 62.6694 18.9139 62.2417 18.425L58.2083 19.8917L56.375 16.6833L59.5833 14.1167C59.4611 13.8111 59.3542 13.475 59.2625 13.1083C59.1708 12.7417 59.125 12.375 59.125 12.0083C59.125 11.6417 59.1708 11.275 59.2625 10.9083C59.3542 10.5417 59.4611 10.2056 59.5833 9.9L56.375 7.33333L58.2083 4.125L62.2417 5.59167C62.6694 5.10278 63.2042 4.62917 63.8458 4.17083C64.4875 3.7125 65.1139 3.39167 65.725 3.20833L66.55 0H70.0333L70.8583 3.20833C71.4694 3.39167 72.0958 3.7125 72.7375 4.17083C73.3792 4.62917 73.9139 5.10278 74.3417 5.59167L78.375 4.125L80.2083 7.33333L77 9.9C77.1222 10.2056 77.2292 10.5417 77.3208 10.9083C77.4125 11.275 77.4583 11.6417 77.4583 12.0083C77.4583 12.375 77.4125 12.7417 77.3208 13.1083C77.2292 13.475 77.1222 13.8111 77 14.1167L80.2083 16.6833L78.375 19.8917L74.3417 18.425C73.9139 18.9139 73.3792 19.3722 72.7375 19.8C72.0958 20.2278 71.4694 20.5639 70.8583 20.8083L70.0333 24.0167H66.55ZM68.2917 17.325C69.8194 17.325 71.0875 16.8208 72.0958 15.8125C73.1042 14.8042 73.6083 13.5361 73.6083 12.0083C73.6083 10.4806 73.1042 9.2125 72.0958 8.20417C71.0875 7.19583 69.8194 6.69167 68.2917 6.69167C66.7639 6.69167 65.4958 7.19583 64.4875 8.20417C63.4792 9.2125 62.975 10.4806 62.975 12.0083C62.975 13.5361 63.4792 14.8042 64.4875 15.8125C65.4958 16.8208 66.7639 17.325 68.2917 17.325Z" fill="white"/>
</svg>
