<svg width="34" height="33" viewBox="0 0 34 33" fill="white" xmlns="http://www.w3.org/2000/svg">
<path d="M4.95837 27.5C4.39171 27.5 3.89587 27.2938 3.47087 26.8813C3.04587 26.4688 2.83337 25.9875 2.83337 25.4375V7.5625C2.83337 7.0125 3.04587 6.53125 3.47087 6.11875C3.89587 5.70625 4.39171 5.5 4.95837 5.5H29.0417C29.6084 5.5 30.1042 5.70625 30.5292 6.11875C30.9542 6.53125 31.1667 7.0125 31.1667 7.5625V25.4375C31.1667 25.9875 30.9542 26.4688 30.5292 26.8813C30.1042 27.2938 29.6084 27.5 29.0417 27.5H4.95837ZM17 17.1188L29.0417 9.45312V7.5625L17 15.0563L4.95837 7.5625V9.45312L17 17.1188Z" fill="white"/>
</svg>
