<svg width="26" height="29" viewBox="0 0 26 29" fill="white" xmlns="http://www.w3.org/2000/svg">
<path d="M23.9062 28.375C21.0257 28.375 18.1628 27.6042 15.3177 26.0625C12.4726 24.5208 9.91667 22.5167 7.65 20.05C5.38333 17.5833 3.54167 14.8019 2.125 11.7057C0.708333 8.60955 0 5.4941 0 2.35938C0 1.87118 0.153472 1.46007 0.460417 1.12604C0.767361 0.792014 1.14514 0.625 1.59375 0.625H6.55208C6.88264 0.625 7.17188 0.747049 7.41979 0.991146C7.66771 1.23524 7.82708 1.56285 7.89792 1.97396L8.85417 6.83021C8.90139 7.18993 8.89549 7.51753 8.83646 7.81302C8.77743 8.10851 8.65347 8.35903 8.46458 8.56458L4.92292 12.4573C6.24514 14.8469 7.72674 16.9281 9.36771 18.701C11.0087 20.474 12.8681 21.9771 14.9458 23.2104L18.3104 19.4333C18.5465 19.1507 18.8181 18.9516 19.125 18.8359C19.4319 18.7203 19.7389 18.701 20.0458 18.7781L24.2604 19.7802C24.6146 19.8573 24.9097 20.05 25.1458 20.3583C25.3819 20.6667 25.5 21.0264 25.5 21.4375V26.6406C25.5 27.1288 25.3465 27.5399 25.0396 27.874C24.7326 28.208 24.3549 28.375 23.9062 28.375Z" fill="white"/>
</svg>
