<svg width="34" height="34" viewBox="0 0 34 34" fill="white" xmlns="http://www.w3.org/2000/svg">
<path d="M22.2063 23.8354L23.8 22.2416L18.1688 16.575V9.45623H16.0438V17.425L22.2063 23.8354ZM17 31.1666C15.0639 31.1666 13.2341 30.7948 11.5105 30.051C9.78685 29.3073 8.28164 28.292 6.99483 27.0052C5.70803 25.7184 4.69275 24.2132 3.949 22.4896C3.20525 20.766 2.83337 18.9361 2.83337 17C2.83337 15.0639 3.20525 13.234 3.949 11.5104C4.69275 9.78679 5.70803 8.28158 6.99483 6.99477C8.28164 5.70797 9.78685 4.69269 11.5105 3.94894C13.2341 3.20519 15.0639 2.83331 17 2.83331C18.9362 2.83331 20.766 3.20519 22.4896 3.94894C24.2132 4.69269 25.7184 5.70797 27.0052 6.99477C28.2921 8.28158 29.3073 9.78679 30.0511 11.5104C30.7948 13.234 31.1667 15.0639 31.1667 17C31.1667 18.9361 30.7948 20.766 30.0511 22.4896C29.3073 24.2132 28.2921 25.7184 27.0052 27.0052C25.7184 28.292 24.2132 29.3073 22.4896 30.051C20.766 30.7948 18.9362 31.1666 17 31.1666Z" fill="white"/>
</svg>
