<svg width="88" height="88" viewBox="0 0 88 88" fill="white" xmlns="http://www.w3.org/2000/svg">
<path d="M73.0584 80.6667H51.0584C50.0195 80.6667 49.1487 80.3153 48.4459 79.6125C47.7431 78.9098 47.3917 78.0389 47.3917 77V55C47.3917 53.9612 47.7431 53.0903 48.4459 52.3875C49.1487 51.6848 50.0195 51.3334 51.0584 51.3334H73.0584C74.0973 51.3334 74.9681 51.6848 75.6709 52.3875C76.3737 53.0903 76.725 53.9612 76.725 55V62.3334L84.0584 55V77L76.725 69.6667V77C76.725 78.0389 76.3737 78.9098 75.6709 79.6125C74.9681 80.3153 74.0973 80.6667 73.0584 80.6667ZM44.0093 32.0834C40.7155 32.0834 37.9044 33.2467 35.576 35.5732C33.2476 37.8998 32.0834 40.7088 32.0834 44C32.0834 46.6278 32.8167 48.95 34.2834 50.9667C35.75 52.9834 37.6445 54.4195 39.9667 55.275V49.0417C39.2945 48.4917 38.7292 47.7431 38.2709 46.7959C37.8125 45.8487 37.5834 44.9167 37.5834 44C37.5834 42.2176 38.2062 40.7026 39.4517 39.4549C40.6974 38.2072 42.2099 37.5834 43.9892 37.5834C45.7687 37.5834 47.2695 38.1983 48.4917 39.4282C49.7139 40.658 50.325 42.1514 50.325 43.9084H55.825C55.825 40.6084 54.6792 37.8125 52.3875 35.5209C50.0959 33.2292 47.3031 32.0834 44.0093 32.0834ZM35.5667 80.6667L33.7334 69.1167C32.5723 68.6889 31.35 68.1084 30.0667 67.375C28.7834 66.6417 27.6528 65.8778 26.675 65.0834L15.8584 70.0334L7.33337 55L17.2334 47.7584C17.1112 47.2084 17.0348 46.582 17.0042 45.8792C16.9737 45.1764 16.9584 44.55 16.9584 44C16.9584 43.45 16.9737 42.8237 17.0042 42.1209C17.0348 41.4181 17.1112 40.7917 17.2334 40.2417L7.33337 33L15.8584 17.9667L26.675 22.9167C27.6528 22.1223 28.7834 21.3584 30.0667 20.625C31.35 19.8917 32.5723 19.3417 33.7334 18.975L35.5667 7.33337H52.4334L54.2667 18.8834C55.4278 19.3112 56.6653 19.8764 57.9792 20.5792C59.2931 21.282 60.4084 22.0612 61.325 22.9167L72.1417 17.9667L80.6667 33L70.7667 40.0584C70.8278 40.6695 70.8737 41.3264 70.9042 42.0292C70.9348 42.732 70.95 43.3584 70.95 43.9084H65.45C65.45 42.6862 65.3889 41.6014 65.2667 40.6542C65.1445 39.707 64.9612 38.775 64.7167 37.8584L73.3334 31.5334L69.6667 24.9334L59.95 29.15C58.5445 27.5612 56.9556 26.232 55.1834 25.1625C53.4112 24.0931 51.4556 23.4056 49.3167 23.1L47.9955 12.8334H39.9667L38.6834 23.1C36.6056 23.5278 34.6653 24.2612 32.8625 25.3C31.0598 26.3389 29.4556 27.6223 28.05 29.15L18.3334 24.9334L14.6667 31.5334L23.2834 37.8584C23.0389 38.8973 22.8403 39.9209 22.6875 40.9292C22.5348 41.9375 22.4584 42.9612 22.4584 44C22.4584 45.0628 22.5348 46.0924 22.6875 47.0888C22.8403 48.0852 23.0389 49.1028 23.2834 50.1417L14.6667 56.4667L18.3334 63.0667L28.05 58.85C29.6389 60.4389 31.457 61.7681 33.5042 62.8375C35.5514 63.907 37.7056 64.6862 39.9667 65.175V80.6667H35.5667Z" fill="white"/>
</svg>
