<svg width="2030" height="131" viewBox="0 0 2030 131" fill="none" xmlns="http://www.w3.org/2000/svg">
<g filter="url(#filter0_d_28_83)">
<path d="M667.733 61L645.719 1H1385.41L1407.43 61L1385.41 121H645.719L667.733 61Z" fill="#D9D9D9" stroke="#D9D9D9"/>
<path d="M762.222 84.5469L766.488 63.8135H771.287L768.375 84.5469H762.222ZM773.215 57.3535C773.228 58.2832 772.914 59.042 772.271 59.6299C771.642 60.2178 770.883 60.5117 769.995 60.5117C769.12 60.5254 768.368 60.2588 767.739 59.7119C767.11 59.165 766.782 58.4473 766.755 57.5586C766.741 56.6289 767.055 55.8701 767.698 55.2822C768.34 54.6943 769.113 54.3936 770.015 54.3799C770.877 54.3662 771.622 54.6328 772.251 55.1797C772.88 55.7266 773.201 56.4512 773.215 57.3535ZM788.81 66.377L781.079 66.3564L781.92 61.5576L789.015 61.5781C790.027 61.5781 790.957 61.4004 791.804 61.0449C792.652 60.6758 793.349 60.1426 793.896 59.4453C794.443 58.748 794.792 57.873 794.942 56.8203C795.079 55.9316 795.031 55.1318 794.799 54.4209C794.566 53.71 794.156 53.1357 793.568 52.6982C792.98 52.2607 792.221 52.0215 791.292 51.9805L785.693 51.96L781.345 77H775.337L780.505 47.1406L791.476 47.1611C793.377 47.2021 795.072 47.6123 796.562 48.3916C798.052 49.1572 799.201 50.251 800.008 51.6729C800.828 53.0811 801.156 54.7832 800.992 56.7793C800.814 58.9531 800.137 60.751 798.962 62.1729C797.786 63.5947 796.302 64.6543 794.511 65.3516C792.734 66.0352 790.834 66.377 788.81 66.377ZM815.398 71.3809L818.269 54.8105H824.053L820.197 77H814.783L815.398 71.3809ZM816.711 67.1152L818.372 67.0742C818.221 68.373 817.934 69.6445 817.511 70.8887C817.087 72.1328 816.506 73.2539 815.767 74.252C815.029 75.25 814.113 76.0361 813.019 76.6104C811.926 77.1846 810.634 77.458 809.143 77.4307C807.927 77.4033 806.901 77.1709 806.067 76.7334C805.233 76.2822 804.57 75.6807 804.078 74.9287C803.586 74.1631 803.251 73.2881 803.073 72.3037C802.909 71.3193 802.882 70.2666 802.991 69.1455L805.39 54.8105H811.153L808.733 69.2275C808.692 69.6924 808.692 70.1367 808.733 70.5605C808.774 70.9707 808.884 71.3398 809.061 71.668C809.239 71.9961 809.492 72.2627 809.82 72.4678C810.148 72.6592 810.586 72.7617 811.133 72.7754C812.295 72.8164 813.259 72.584 814.024 72.0781C814.79 71.5586 815.385 70.8613 815.808 69.9863C816.246 69.1113 816.547 68.1543 816.711 67.1152ZM835.383 77.4102C833.865 77.3828 832.498 77.0957 831.281 76.5488C830.064 75.9883 829.046 75.2227 828.225 74.252C827.419 73.2812 826.824 72.1533 826.441 70.8682C826.058 69.583 825.922 68.2021 826.031 66.7256L826.113 65.8848C826.277 64.3398 826.653 62.8701 827.241 61.4756C827.829 60.0811 828.615 58.8506 829.6 57.7842C830.584 56.7041 831.746 55.8633 833.086 55.2617C834.439 54.6465 835.943 54.3594 837.598 54.4004C839.142 54.4277 840.462 54.7422 841.556 55.3438C842.649 55.9453 843.531 56.752 844.201 57.7637C844.871 58.7754 845.329 59.9307 845.575 61.2295C845.821 62.5146 845.869 63.8613 845.719 65.2695L845.391 67.7305H828.246L828.882 63.793L840.202 63.8135L840.305 63.3008C840.414 62.5488 840.38 61.8516 840.202 61.209C840.024 60.5527 839.689 60.0264 839.197 59.6299C838.705 59.2334 838.049 59.0215 837.228 58.9941C836.285 58.9668 835.492 59.165 834.85 59.5889C834.207 60.0127 833.681 60.5732 833.27 61.2705C832.86 61.9678 832.546 62.7266 832.327 63.5469C832.108 64.3535 831.951 65.1328 831.855 65.8848L831.773 66.7051C831.705 67.4297 831.725 68.1543 831.835 68.8789C831.944 69.5898 832.156 70.2324 832.471 70.8066C832.799 71.3809 833.243 71.8457 833.804 72.2012C834.378 72.5566 835.096 72.748 835.957 72.7754C837.051 72.8027 838.056 72.5908 838.972 72.1396C839.901 71.6748 840.735 71.0596 841.474 70.2939L844.058 73.4111C843.442 74.3408 842.656 75.1064 841.699 75.708C840.756 76.2959 839.737 76.7266 838.643 77C837.55 77.2871 836.463 77.4238 835.383 77.4102ZM861.027 71.832L865.58 45.5H871.384L865.929 77H860.74L861.027 71.832ZM848.395 66.3359L848.436 65.8848C848.613 64.5312 848.928 63.1641 849.379 61.7832C849.844 60.4023 850.473 59.1445 851.266 58.0098C852.072 56.875 853.063 55.9727 854.239 55.3027C855.415 54.6328 856.81 54.3252 858.423 54.3799C859.804 54.4346 860.945 54.8242 861.848 55.5488C862.75 56.2598 863.447 57.1826 863.939 58.3174C864.445 59.4385 864.787 60.6348 864.965 61.9062C865.156 63.1641 865.231 64.3604 865.19 65.4951L865.088 66.4795C864.869 67.6963 864.5 68.9541 863.98 70.2529C863.475 71.5381 862.811 72.7344 861.991 73.8418C861.185 74.9355 860.221 75.8174 859.1 76.4873C857.992 77.1572 856.728 77.4717 855.306 77.4307C853.815 77.3896 852.592 77.0273 851.635 76.3438C850.691 75.6465 849.96 74.751 849.44 73.6572C848.921 72.5635 848.586 71.374 848.436 70.0889C848.285 68.8037 848.271 67.5527 848.395 66.3359ZM854.239 65.8643L854.198 66.2949C854.144 66.8828 854.109 67.5459 854.096 68.2842C854.096 69.0088 854.171 69.7129 854.321 70.3965C854.485 71.0664 854.779 71.627 855.203 72.0781C855.641 72.5156 856.27 72.7549 857.09 72.7959C858.129 72.8369 859.024 72.5977 859.776 72.0781C860.528 71.5449 861.13 70.8613 861.581 70.0273C862.046 69.1934 862.353 68.3184 862.504 67.4023L862.894 64.6748C862.962 64.0459 862.962 63.4102 862.894 62.7676C862.825 62.125 862.668 61.5234 862.422 60.9629C862.189 60.4023 861.834 59.9443 861.355 59.5889C860.891 59.2334 860.282 59.0488 859.53 59.0352C858.614 58.9941 857.835 59.1924 857.192 59.6299C856.563 60.0537 856.051 60.6143 855.654 61.3115C855.258 61.9951 854.943 62.7402 854.711 63.5469C854.492 64.3535 854.335 65.126 854.239 65.8643ZM881.176 77.4102C879.658 77.3828 878.291 77.0957 877.074 76.5488C875.857 75.9883 874.839 75.2227 874.019 74.252C873.212 73.2812 872.617 72.1533 872.234 70.8682C871.852 69.583 871.715 68.2021 871.824 66.7256L871.906 65.8848C872.07 64.3398 872.446 62.8701 873.034 61.4756C873.622 60.0811 874.408 58.8506 875.393 57.7842C876.377 56.7041 877.539 55.8633 878.879 55.2617C880.232 54.6465 881.736 54.3594 883.391 54.4004C884.936 54.4277 886.255 54.7422 887.349 55.3438C888.442 55.9453 889.324 56.752 889.994 57.7637C890.664 58.7754 891.122 59.9307 891.368 61.2295C891.614 62.5146 891.662 63.8613 891.512 65.2695L891.184 67.7305H874.039L874.675 63.793L885.995 63.8135L886.098 63.3008C886.207 62.5488 886.173 61.8516 885.995 61.209C885.817 60.5527 885.482 60.0264 884.99 59.6299C884.498 59.2334 883.842 59.0215 883.022 58.9941C882.078 58.9668 881.285 59.165 880.643 59.5889C880 60.0127 879.474 60.5732 879.064 61.2705C878.653 61.9678 878.339 62.7266 878.12 63.5469C877.901 64.3535 877.744 65.1328 877.648 65.8848L877.566 66.7051C877.498 67.4297 877.519 68.1543 877.628 68.8789C877.737 69.5898 877.949 70.2324 878.264 70.8066C878.592 71.3809 879.036 71.8457 879.597 72.2012C880.171 72.5566 880.889 72.748 881.75 72.7754C882.844 72.8027 883.849 72.5908 884.765 72.1396C885.694 71.6748 886.528 71.0596 887.267 70.2939L889.851 73.4111C889.235 74.3408 888.449 75.1064 887.492 75.708C886.549 76.2959 885.53 76.7266 884.437 77C883.343 77.2871 882.256 77.4238 881.176 77.4102ZM913.68 72.8164C914.405 72.8301 915.047 72.6934 915.608 72.4062C916.182 72.1191 916.654 71.7158 917.023 71.1963C917.392 70.6768 917.638 70.0752 917.761 69.3916L923.196 69.3711C923.072 71.0254 922.539 72.4609 921.596 73.6777C920.666 74.8945 919.484 75.8311 918.048 76.4873C916.626 77.1436 915.115 77.4512 913.516 77.4102C911.916 77.3828 910.542 77.0615 909.394 76.4463C908.259 75.8311 907.343 75.0107 906.646 73.9854C905.948 72.9463 905.456 71.7637 905.169 70.4375C904.896 69.1113 904.827 67.7168 904.964 66.2539L905.026 65.6387C905.19 64.1074 905.559 62.6582 906.133 61.291C906.707 59.9102 907.473 58.7002 908.43 57.6611C909.401 56.6084 910.542 55.7949 911.855 55.2207C913.167 54.6328 914.651 54.3594 916.305 54.4004C918.014 54.4277 919.477 54.8174 920.694 55.5693C921.91 56.3076 922.833 57.3193 923.462 58.6045C924.105 59.8896 924.412 61.3662 924.385 63.0342L918.971 63.0137C918.985 62.3438 918.896 61.708 918.704 61.1064C918.513 60.4912 918.185 59.999 917.72 59.6299C917.269 59.2471 916.654 59.0352 915.874 58.9941C914.958 58.9668 914.193 59.1582 913.577 59.5684C912.962 59.9648 912.463 60.5049 912.08 61.1885C911.697 61.8584 911.404 62.5898 911.198 63.3828C910.993 64.1621 910.85 64.9209 910.768 65.6592L910.727 66.2539C910.658 66.8691 910.617 67.5527 910.604 68.3047C910.59 69.043 910.665 69.7539 910.829 70.4375C910.993 71.1074 911.294 71.668 911.732 72.1191C912.183 72.5566 912.832 72.7891 913.68 72.8164ZM926.63 66.2539L926.692 65.8232C926.856 64.251 927.232 62.7744 927.82 61.3936C928.421 59.999 929.214 58.7754 930.199 57.7227C931.197 56.6562 932.366 55.8291 933.705 55.2412C935.059 54.6396 936.576 54.3594 938.258 54.4004C939.858 54.4277 941.239 54.749 942.401 55.3643C943.563 55.9795 944.513 56.8066 945.251 57.8457C946.003 58.8848 946.53 60.0742 946.83 61.4141C947.145 62.7539 947.234 64.1689 947.097 65.6592L947.056 66.1104C946.878 67.6689 946.482 69.1387 945.867 70.5195C945.265 71.8867 944.465 73.0967 943.467 74.1494C942.483 75.1885 941.314 76.002 939.96 76.5898C938.607 77.1777 937.103 77.4512 935.449 77.4102C933.876 77.3828 932.502 77.0684 931.326 76.4668C930.151 75.8516 929.194 75.0312 928.455 74.0059C927.717 72.9668 927.198 71.7842 926.897 70.458C926.596 69.1318 926.507 67.7305 926.63 66.2539ZM932.454 65.8232L932.413 66.2744C932.345 66.9307 932.325 67.6348 932.352 68.3867C932.379 69.125 932.495 69.8291 932.7 70.499C932.919 71.1689 933.275 71.7158 933.767 72.1396C934.259 72.5635 934.936 72.7891 935.797 72.8164C936.713 72.8438 937.499 72.6592 938.156 72.2627C938.812 71.8662 939.352 71.333 939.776 70.6631C940.2 69.9795 940.534 69.2412 940.781 68.4482C941.027 67.6416 941.191 66.8555 941.273 66.0898L941.314 65.6592C941.368 65.0029 941.382 64.2988 941.355 63.5469C941.341 62.7812 941.225 62.0635 941.006 61.3936C940.787 60.71 940.432 60.1494 939.94 59.7119C939.448 59.2744 938.771 59.042 937.909 59.0146C936.993 58.9736 936.207 59.165 935.551 59.5889C934.895 59.999 934.355 60.5459 933.931 61.2295C933.507 61.9131 933.172 62.6582 932.926 63.4648C932.694 64.2715 932.536 65.0576 932.454 65.8232ZM957.668 59.876L954.695 77H948.911L952.767 54.8105H958.181L957.668 59.876ZM955.966 65.126L954.531 65.167C954.681 63.8408 954.982 62.5283 955.433 61.2295C955.884 59.9307 956.499 58.7617 957.279 57.7227C958.072 56.6699 959.036 55.8428 960.17 55.2412C961.319 54.6396 962.652 54.3525 964.169 54.3799C965.4 54.4209 966.411 54.6807 967.204 55.1592C968.011 55.624 968.626 56.2529 969.05 57.0459C969.488 57.8389 969.768 58.7344 969.891 59.7324C970.028 60.7305 970.041 61.7695 969.932 62.8496L967.553 77H961.749L964.149 62.7881C964.231 62.0635 964.21 61.4209 964.087 60.8604C963.964 60.2998 963.691 59.8555 963.267 59.5273C962.857 59.1992 962.255 59.0283 961.462 59.0146C960.587 58.9873 959.828 59.1514 959.186 59.5068C958.557 59.8623 958.024 60.3408 957.586 60.9424C957.149 61.5439 956.8 62.207 956.54 62.9316C956.281 63.6562 956.089 64.3877 955.966 65.126ZM986.758 54.8105L986.02 58.9941H973.449L974.187 54.8105H986.758ZM978.247 49.335H984.01L980.401 70.3555C980.346 70.834 980.346 71.2441 980.401 71.5859C980.469 71.9141 980.626 72.167 980.872 72.3447C981.119 72.5225 981.501 72.625 982.021 72.6523C982.308 72.666 982.595 72.6592 982.882 72.6318C983.169 72.5908 983.463 72.5498 983.764 72.5088L983.354 76.918C982.807 77.082 982.253 77.1982 981.693 77.2666C981.146 77.3486 980.585 77.3896 980.011 77.3896C978.699 77.3623 977.619 77.0752 976.771 76.5283C975.937 75.9814 975.335 75.2295 974.966 74.2725C974.611 73.3018 974.495 72.1807 974.618 70.9092L978.247 49.335ZM999.073 71.9961L1000.63 62.0498C1000.7 61.4482 1000.67 60.8877 1000.55 60.3682C1000.43 59.8486 1000.17 59.4385 999.791 59.1377C999.421 58.8232 998.895 58.6523 998.211 58.625C997.596 58.6113 997.043 58.7207 996.55 58.9531C996.072 59.1719 995.675 59.4932 995.361 59.917C995.046 60.3271 994.828 60.8193 994.705 61.3936L988.921 61.4346C988.99 60.2041 989.332 59.1445 989.947 58.2559C990.576 57.3535 991.369 56.6152 992.326 56.041C993.283 55.4668 994.322 55.043 995.443 54.7695C996.578 54.4961 997.685 54.373 998.765 54.4004C1000.31 54.4277 1001.68 54.749 1002.89 55.3643C1004.1 55.9795 1005.03 56.8613 1005.68 58.0098C1006.33 59.1445 1006.58 60.5254 1006.41 62.1523L1004.88 71.668C1004.75 72.4609 1004.66 73.2949 1004.59 74.1699C1004.52 75.0312 1004.64 75.8516 1004.96 76.6309L1004.92 77L999.257 77.0205C998.998 76.2139 998.868 75.3867 998.868 74.5391C998.881 73.6777 998.95 72.8301 999.073 71.9961ZM1001.29 63.4854L1000.73 66.8281L997.801 66.8076C997.213 66.8213 996.626 66.9033 996.038 67.0537C995.463 67.1904 994.93 67.4092 994.438 67.71C993.946 67.9971 993.536 68.373 993.208 68.8379C992.893 69.3027 992.695 69.8701 992.613 70.54C992.544 71.0186 992.592 71.4492 992.756 71.832C992.92 72.2012 993.173 72.4951 993.515 72.7139C993.871 72.9326 994.294 73.0488 994.787 73.0625C995.484 73.0762 996.168 72.9463 996.837 72.6729C997.507 72.3857 998.088 71.9824 998.581 71.4629C999.073 70.9434 999.415 70.3418 999.606 69.6582L1000.84 72.2217C1000.51 72.9873 1000.09 73.6914 999.585 74.334C999.093 74.9766 998.526 75.5371 997.883 76.0156C997.241 76.4805 996.537 76.8359 995.771 77.082C995.005 77.3418 994.185 77.4648 993.31 77.4512C992.093 77.4238 990.972 77.1367 989.947 76.5898C988.935 76.0293 988.128 75.2705 987.527 74.3135C986.939 73.3428 986.672 72.2148 986.727 70.9297C986.782 69.4805 987.144 68.2773 987.814 67.3203C988.484 66.3496 989.345 65.584 990.398 65.0234C991.464 64.4629 992.62 64.0664 993.864 63.834C995.122 63.5879 996.366 63.4648 997.596 63.4648L1001.29 63.4854ZM1017.48 59.958L1014.53 77H1008.76L1012.62 54.8105H1018.03L1017.48 59.958ZM1024.72 54.626L1024 60.1426C1023.67 60.0879 1023.34 60.04 1022.99 59.999C1022.67 59.958 1022.33 59.9307 1021.99 59.917C1021.2 59.9033 1020.48 60.0059 1019.84 60.2246C1019.19 60.4434 1018.63 60.7646 1018.15 61.1885C1017.69 61.5986 1017.29 62.1045 1016.97 62.7061C1016.65 63.3076 1016.41 63.9844 1016.25 64.7363L1015.12 64.3672C1015.26 63.3145 1015.48 62.207 1015.8 61.0449C1016.12 59.8691 1016.58 58.7754 1017.15 57.7637C1017.74 56.7383 1018.48 55.9111 1019.39 55.2822C1020.3 54.6396 1021.42 54.3252 1022.73 54.3389C1023.07 54.3389 1023.4 54.3662 1023.71 54.4209C1024.04 54.4756 1024.38 54.5439 1024.72 54.626ZM1044.59 72.8164C1045.31 72.8301 1045.96 72.6934 1046.52 72.4062C1047.09 72.1191 1047.56 71.7158 1047.93 71.1963C1048.3 70.6768 1048.55 70.0752 1048.67 69.3916L1054.1 69.3711C1053.98 71.0254 1053.45 72.4609 1052.5 73.6777C1051.57 74.8945 1050.39 75.8311 1048.96 76.4873C1047.53 77.1436 1046.02 77.4512 1044.42 77.4102C1042.82 77.3828 1041.45 77.0615 1040.3 76.4463C1039.17 75.8311 1038.25 75.0107 1037.55 73.9854C1036.86 72.9463 1036.37 71.7637 1036.08 70.4375C1035.8 69.1113 1035.74 67.7168 1035.87 66.2539L1035.93 65.6387C1036.1 64.1074 1036.47 62.6582 1037.04 61.291C1037.62 59.9102 1038.38 58.7002 1039.34 57.6611C1040.31 56.6084 1041.45 55.7949 1042.76 55.2207C1044.08 54.6328 1045.56 54.3594 1047.21 54.4004C1048.92 54.4277 1050.39 54.8174 1051.6 55.5693C1052.82 56.3076 1053.74 57.3193 1054.37 58.6045C1055.01 59.8896 1055.32 61.3662 1055.29 63.0342L1049.88 63.0137C1049.89 62.3438 1049.8 61.708 1049.61 61.1064C1049.42 60.4912 1049.09 59.999 1048.63 59.6299C1048.18 59.2471 1047.56 59.0352 1046.78 58.9941C1045.87 58.9668 1045.1 59.1582 1044.49 59.5684C1043.87 59.9648 1043.37 60.5049 1042.99 61.1885C1042.61 61.8584 1042.31 62.5898 1042.11 63.3828C1041.9 64.1621 1041.76 64.9209 1041.68 65.6592L1041.64 66.2539C1041.57 66.8691 1041.53 67.5527 1041.51 68.3047C1041.5 69.043 1041.57 69.7539 1041.74 70.4375C1041.9 71.1074 1042.2 71.668 1042.64 72.1191C1043.09 72.5566 1043.74 72.7891 1044.59 72.8164ZM1057.54 66.2539L1057.6 65.8232C1057.76 64.251 1058.14 62.7744 1058.73 61.3936C1059.33 59.999 1060.12 58.7754 1061.11 57.7227C1062.11 56.6562 1063.27 55.8291 1064.61 55.2412C1065.97 54.6396 1067.49 54.3594 1069.17 54.4004C1070.77 54.4277 1072.15 54.749 1073.31 55.3643C1074.47 55.9795 1075.42 56.8066 1076.16 57.8457C1076.91 58.8848 1077.44 60.0742 1077.74 61.4141C1078.05 62.7539 1078.14 64.1689 1078.01 65.6592L1077.96 66.1104C1077.79 67.6689 1077.39 69.1387 1076.78 70.5195C1076.17 71.8867 1075.37 73.0967 1074.38 74.1494C1073.39 75.1885 1072.22 76.002 1070.87 76.5898C1069.52 77.1777 1068.01 77.4512 1066.36 77.4102C1064.79 77.3828 1063.41 77.0684 1062.24 76.4668C1061.06 75.8516 1060.1 75.0312 1059.36 74.0059C1058.63 72.9668 1058.11 71.7842 1057.81 70.458C1057.5 69.1318 1057.42 67.7305 1057.54 66.2539ZM1063.36 65.8232L1063.32 66.2744C1063.25 66.9307 1063.23 67.6348 1063.26 68.3867C1063.29 69.125 1063.4 69.8291 1063.61 70.499C1063.83 71.1689 1064.18 71.7158 1064.68 72.1396C1065.17 72.5635 1065.84 72.7891 1066.71 72.8164C1067.62 72.8438 1068.41 72.6592 1069.06 72.2627C1069.72 71.8662 1070.26 71.333 1070.68 70.6631C1071.11 69.9795 1071.44 69.2412 1071.69 68.4482C1071.94 67.6416 1072.1 66.8555 1072.18 66.0898L1072.22 65.6592C1072.28 65.0029 1072.29 64.2988 1072.26 63.5469C1072.25 62.7812 1072.13 62.0635 1071.91 61.3936C1071.7 60.71 1071.34 60.1494 1070.85 59.7119C1070.36 59.2744 1069.68 59.042 1068.82 59.0146C1067.9 58.9736 1067.12 59.165 1066.46 59.5889C1065.8 59.999 1065.26 60.5459 1064.84 61.2295C1064.42 61.9131 1064.08 62.6582 1063.83 63.4648C1063.6 64.2715 1063.45 65.0576 1063.36 65.8232ZM1088.58 59.876L1085.6 77H1079.82L1083.68 54.8105H1089.09L1088.58 59.876ZM1086.87 65.126L1085.44 65.167C1085.59 63.8408 1085.89 62.5283 1086.34 61.2295C1086.79 59.9307 1087.41 58.7617 1088.19 57.7227C1088.98 56.6699 1089.94 55.8428 1091.08 55.2412C1092.23 54.6396 1093.56 54.3525 1095.08 54.3799C1096.31 54.4209 1097.32 54.6807 1098.11 55.1592C1098.92 55.624 1099.54 56.2529 1099.96 57.0459C1100.4 57.8389 1100.68 58.7344 1100.8 59.7324C1100.94 60.7305 1100.95 61.7695 1100.84 62.8496L1098.46 77H1092.66L1095.06 62.7881C1095.14 62.0635 1095.12 61.4209 1095 60.8604C1094.87 60.2998 1094.6 59.8555 1094.18 59.5273C1093.77 59.1992 1093.16 59.0283 1092.37 59.0146C1091.5 58.9873 1090.74 59.1514 1090.09 59.5068C1089.47 59.8623 1088.93 60.3408 1088.5 60.9424C1088.06 61.5439 1087.71 62.207 1087.45 62.9316C1087.19 63.6562 1087 64.3877 1086.87 65.126ZM1122.6 59.876L1119.63 77H1113.84L1117.7 54.8105H1123.11L1122.6 59.876ZM1120.9 65.126L1119.46 65.167C1119.61 63.8408 1119.91 62.5283 1120.36 61.2295C1120.81 59.9307 1121.43 58.7617 1122.21 57.7227C1123 56.6699 1123.97 55.8428 1125.1 55.2412C1126.25 54.6396 1127.58 54.3525 1129.1 54.3799C1130.33 54.4209 1131.34 54.6807 1132.13 55.1592C1132.94 55.624 1133.56 56.2529 1133.98 57.0459C1134.42 57.8389 1134.7 58.7344 1134.82 59.7324C1134.96 60.7305 1134.97 61.7695 1134.86 62.8496L1132.48 77H1126.68L1129.08 62.7881C1129.16 62.0635 1129.14 61.4209 1129.02 60.8604C1128.89 60.2998 1128.62 59.8555 1128.2 59.5273C1127.79 59.1992 1127.19 59.0283 1126.39 59.0146C1125.52 58.9873 1124.76 59.1514 1124.12 59.5068C1123.49 59.8623 1122.95 60.3408 1122.52 60.9424C1122.08 61.5439 1121.73 62.207 1121.47 62.9316C1121.21 63.6562 1121.02 64.3877 1120.9 65.126ZM1138.26 66.2539L1138.32 65.8232C1138.48 64.251 1138.86 62.7744 1139.45 61.3936C1140.05 59.999 1140.84 58.7754 1141.82 57.7227C1142.82 56.6562 1143.99 55.8291 1145.33 55.2412C1146.68 54.6396 1148.2 54.3594 1149.88 54.4004C1151.48 54.4277 1152.86 54.749 1154.03 55.3643C1155.19 55.9795 1156.14 56.8066 1156.88 57.8457C1157.63 58.8848 1158.16 60.0742 1158.46 61.4141C1158.77 62.7539 1158.86 64.1689 1158.72 65.6592L1158.68 66.1104C1158.5 67.6689 1158.11 69.1387 1157.49 70.5195C1156.89 71.8867 1156.09 73.0967 1155.09 74.1494C1154.11 75.1885 1152.94 76.002 1151.59 76.5898C1150.23 77.1777 1148.73 77.4512 1147.07 77.4102C1145.5 77.3828 1144.13 77.0684 1142.95 76.4668C1141.78 75.8516 1140.82 75.0312 1140.08 74.0059C1139.34 72.9668 1138.82 71.7842 1138.52 70.458C1138.22 69.1318 1138.13 67.7305 1138.26 66.2539ZM1144.08 65.8232L1144.04 66.2744C1143.97 66.9307 1143.95 67.6348 1143.98 68.3867C1144.01 69.125 1144.12 69.8291 1144.33 70.499C1144.55 71.1689 1144.9 71.7158 1145.39 72.1396C1145.88 72.5635 1146.56 72.7891 1147.42 72.8164C1148.34 72.8438 1149.13 72.6592 1149.78 72.2627C1150.44 71.8662 1150.98 71.333 1151.4 70.6631C1151.83 69.9795 1152.16 69.2412 1152.41 68.4482C1152.65 67.6416 1152.82 66.8555 1152.9 66.0898L1152.94 65.6592C1152.99 65.0029 1153.01 64.2988 1152.98 63.5469C1152.97 62.7812 1152.85 62.0635 1152.63 61.3936C1152.41 60.71 1152.06 60.1494 1151.57 59.7119C1151.07 59.2744 1150.4 59.042 1149.54 59.0146C1148.62 58.9736 1147.83 59.165 1147.18 59.5889C1146.52 59.999 1145.98 60.5459 1145.56 61.2295C1145.13 61.9131 1144.8 62.6582 1144.55 63.4648C1144.32 64.2715 1144.16 65.0576 1144.08 65.8232ZM1173.54 70.7451C1173.65 70.0889 1173.48 69.583 1173.05 69.2275C1172.61 68.8584 1172.07 68.5781 1171.43 68.3867C1170.8 68.1953 1170.25 68.0449 1169.79 67.9355C1168.97 67.7168 1168.14 67.4434 1167.3 67.1152C1166.48 66.7734 1165.74 66.3496 1165.07 65.8438C1164.4 65.3379 1163.87 64.7227 1163.47 63.998C1163.07 63.2598 1162.9 62.3916 1162.94 61.3936C1162.98 60.2041 1163.28 59.1719 1163.84 58.2969C1164.41 57.4082 1165.15 56.6768 1166.05 56.1025C1166.96 55.5146 1167.94 55.0771 1169.01 54.79C1170.07 54.5029 1171.13 54.373 1172.19 54.4004C1173.66 54.4141 1175.03 54.6875 1176.29 55.2207C1177.56 55.7539 1178.58 56.5469 1179.36 57.5996C1180.16 58.6523 1180.55 59.9648 1180.55 61.5371L1174.83 61.5166C1174.84 60.915 1174.75 60.3887 1174.54 59.9375C1174.34 59.4863 1174.02 59.1377 1173.6 58.8916C1173.18 58.6455 1172.64 58.5225 1171.98 58.5225C1171.46 58.5225 1170.94 58.625 1170.42 58.8301C1169.92 59.0215 1169.48 59.3086 1169.11 59.6914C1168.74 60.0742 1168.51 60.5459 1168.41 61.1064C1168.33 61.5713 1168.4 61.9541 1168.62 62.2549C1168.84 62.5557 1169.13 62.8018 1169.5 62.9932C1169.87 63.1709 1170.26 63.3213 1170.67 63.4443C1171.08 63.5537 1171.45 63.6426 1171.78 63.7109C1172.98 64.0254 1174.15 64.4287 1175.3 64.9209C1176.45 65.4131 1177.39 66.1035 1178.11 66.9922C1178.84 67.8672 1179.17 69.0361 1179.12 70.499C1179.08 71.7432 1178.75 72.8096 1178.13 73.6982C1177.52 74.5732 1176.72 75.291 1175.75 75.8516C1174.8 76.3984 1173.76 76.7949 1172.64 77.041C1171.53 77.3008 1170.44 77.4238 1169.38 77.4102C1167.89 77.3828 1166.48 77.082 1165.17 76.5078C1163.87 75.9336 1162.82 75.0996 1162.01 74.0059C1161.21 72.8984 1160.8 71.5449 1160.78 69.9453L1166.2 69.9658C1166.21 70.6768 1166.35 71.2783 1166.63 71.7705C1166.9 72.2627 1167.29 72.6387 1167.8 72.8984C1168.32 73.1445 1168.93 73.2676 1169.64 73.2676C1170.2 73.2812 1170.76 73.2061 1171.3 73.042C1171.86 72.8779 1172.35 72.6113 1172.76 72.2422C1173.17 71.8594 1173.43 71.3604 1173.54 70.7451ZM1183.06 66.2539L1183.13 65.8232C1183.29 64.251 1183.67 62.7744 1184.25 61.3936C1184.86 59.999 1185.65 58.7754 1186.63 57.7227C1187.63 56.6562 1188.8 55.8291 1190.14 55.2412C1191.49 54.6396 1193.01 54.3594 1194.69 54.4004C1196.29 54.4277 1197.67 54.749 1198.84 55.3643C1200 55.9795 1200.95 56.8066 1201.69 57.8457C1202.44 58.8848 1202.96 60.0742 1203.26 61.4141C1203.58 62.7539 1203.67 64.1689 1203.53 65.6592L1203.49 66.1104C1203.31 67.6689 1202.92 69.1387 1202.3 70.5195C1201.7 71.8867 1200.9 73.0967 1199.9 74.1494C1198.92 75.1885 1197.75 76.002 1196.39 76.5898C1195.04 77.1777 1193.54 77.4512 1191.88 77.4102C1190.31 77.3828 1188.94 77.0684 1187.76 76.4668C1186.59 75.8516 1185.63 75.0312 1184.89 74.0059C1184.15 72.9668 1183.63 71.7842 1183.33 70.458C1183.03 69.1318 1182.94 67.7305 1183.06 66.2539ZM1188.89 65.8232L1188.85 66.2744C1188.78 66.9307 1188.76 67.6348 1188.79 68.3867C1188.81 69.125 1188.93 69.8291 1189.14 70.499C1189.35 71.1689 1189.71 71.7158 1190.2 72.1396C1190.69 72.5635 1191.37 72.7891 1192.23 72.8164C1193.15 72.8438 1193.93 72.6592 1194.59 72.2627C1195.25 71.8662 1195.79 71.333 1196.21 70.6631C1196.63 69.9795 1196.97 69.2412 1197.22 68.4482C1197.46 67.6416 1197.63 66.8555 1197.71 66.0898L1197.75 65.6592C1197.8 65.0029 1197.82 64.2988 1197.79 63.5469C1197.78 62.7812 1197.66 62.0635 1197.44 61.3936C1197.22 60.71 1196.87 60.1494 1196.37 59.7119C1195.88 59.2744 1195.21 59.042 1194.34 59.0146C1193.43 58.9736 1192.64 59.165 1191.99 59.5889C1191.33 59.999 1190.79 60.5459 1190.37 61.2295C1189.94 61.9131 1189.61 62.6582 1189.36 63.4648C1189.13 64.2715 1188.97 65.0576 1188.89 65.8232ZM1219.93 54.8105L1219.19 58.9941H1206.62L1207.36 54.8105H1219.93ZM1211.42 49.335H1217.18L1213.57 70.3555C1213.52 70.834 1213.52 71.2441 1213.57 71.5859C1213.64 71.9141 1213.8 72.167 1214.04 72.3447C1214.29 72.5225 1214.67 72.625 1215.19 72.6523C1215.48 72.666 1215.76 72.6592 1216.05 72.6318C1216.34 72.5908 1216.63 72.5498 1216.93 72.5088L1216.52 76.918C1215.98 77.082 1215.42 77.1982 1214.86 77.2666C1214.31 77.3486 1213.75 77.3896 1213.18 77.3896C1211.87 77.3623 1210.79 77.0752 1209.94 76.5283C1209.11 75.9814 1208.5 75.2295 1208.14 74.2725C1207.78 73.3018 1207.66 72.1807 1207.79 70.9092L1211.42 49.335ZM1228.41 59.958L1225.45 77H1219.69L1223.55 54.8105H1228.96L1228.41 59.958ZM1235.65 54.626L1234.93 60.1426C1234.6 60.0879 1234.27 60.04 1233.92 59.999C1233.6 59.958 1233.26 59.9307 1232.92 59.917C1232.13 59.9033 1231.41 60.0059 1230.77 60.2246C1230.12 60.4434 1229.56 60.7646 1229.08 61.1885C1228.62 61.5986 1228.22 62.1045 1227.89 62.7061C1227.58 63.3076 1227.34 63.9844 1227.18 64.7363L1226.05 64.3672C1226.19 63.3145 1226.41 62.207 1226.73 61.0449C1227.05 59.8691 1227.5 58.7754 1228.08 57.7637C1228.67 56.7383 1229.41 55.9111 1230.31 55.2822C1231.23 54.6396 1232.34 54.3252 1233.66 54.3389C1234 54.3389 1234.33 54.3662 1234.64 54.4209C1234.97 54.4756 1235.3 54.5439 1235.65 54.626ZM1235.43 66.2539L1235.49 65.8232C1235.66 64.251 1236.03 62.7744 1236.62 61.3936C1237.22 59.999 1238.01 58.7754 1239 57.7227C1240 56.6562 1241.17 55.8291 1242.51 55.2412C1243.86 54.6396 1245.38 54.3594 1247.06 54.4004C1248.66 54.4277 1250.04 54.749 1251.2 55.3643C1252.36 55.9795 1253.31 56.8066 1254.05 57.8457C1254.8 58.8848 1255.33 60.0742 1255.63 61.4141C1255.94 62.7539 1256.03 64.1689 1255.9 65.6592L1255.86 66.1104C1255.68 67.6689 1255.28 69.1387 1254.67 70.5195C1254.07 71.8867 1253.27 73.0967 1252.27 74.1494C1251.28 75.1885 1250.11 76.002 1248.76 76.5898C1247.41 77.1777 1245.9 77.4512 1244.25 77.4102C1242.68 77.3828 1241.3 77.0684 1240.13 76.4668C1238.95 75.8516 1237.99 75.0312 1237.26 74.0059C1236.52 72.9668 1236 71.7842 1235.7 70.458C1235.4 69.1318 1235.31 67.7305 1235.43 66.2539ZM1241.25 65.8232L1241.21 66.2744C1241.15 66.9307 1241.12 67.6348 1241.15 68.3867C1241.18 69.125 1241.3 69.8291 1241.5 70.499C1241.72 71.1689 1242.07 71.7158 1242.57 72.1396C1243.06 72.5635 1243.74 72.7891 1244.6 72.8164C1245.51 72.8438 1246.3 72.6592 1246.96 72.2627C1247.61 71.8662 1248.15 71.333 1248.58 70.6631C1249 69.9795 1249.33 69.2412 1249.58 68.4482C1249.83 67.6416 1249.99 66.8555 1250.07 66.0898L1250.11 65.6592C1250.17 65.0029 1250.18 64.2988 1250.15 63.5469C1250.14 62.7812 1250.02 62.0635 1249.81 61.3936C1249.59 60.71 1249.23 60.1494 1248.74 59.7119C1248.25 59.2744 1247.57 59.042 1246.71 59.0146C1245.79 58.9736 1245.01 59.165 1244.35 59.5889C1243.69 59.999 1243.15 60.5459 1242.73 61.2295C1242.31 61.9131 1241.97 62.6582 1241.73 63.4648C1241.49 64.2715 1241.34 65.0576 1241.25 65.8232ZM1270.71 70.7451C1270.82 70.0889 1270.66 69.583 1270.22 69.2275C1269.78 68.8584 1269.24 68.5781 1268.6 68.3867C1267.97 68.1953 1267.43 68.0449 1266.96 67.9355C1266.14 67.7168 1265.31 67.4434 1264.48 67.1152C1263.66 66.7734 1262.91 66.3496 1262.24 65.8438C1261.57 65.3379 1261.04 64.7227 1260.64 63.998C1260.25 63.2598 1260.07 62.3916 1260.11 61.3936C1260.15 60.2041 1260.45 59.1719 1261.01 58.2969C1261.59 57.4082 1262.33 56.6768 1263.23 56.1025C1264.13 55.5146 1265.11 55.0771 1266.18 54.79C1267.25 54.5029 1268.31 54.373 1269.36 54.4004C1270.84 54.4141 1272.2 54.6875 1273.46 55.2207C1274.73 55.7539 1275.76 56.5469 1276.54 57.5996C1277.33 58.6523 1277.73 59.9648 1277.73 61.5371L1272.01 61.5166C1272.02 60.915 1271.92 60.3887 1271.72 59.9375C1271.51 59.4863 1271.2 59.1377 1270.78 58.8916C1270.35 58.6455 1269.81 58.5225 1269.15 58.5225C1268.64 58.5225 1268.12 58.625 1267.6 58.8301C1267.09 59.0215 1266.65 59.3086 1266.28 59.6914C1265.91 60.0742 1265.68 60.5459 1265.59 61.1064C1265.5 61.5713 1265.57 61.9541 1265.79 62.2549C1266.01 62.5557 1266.3 62.8018 1266.67 62.9932C1267.04 63.1709 1267.43 63.3213 1267.84 63.4443C1268.25 63.5537 1268.62 63.6426 1268.95 63.7109C1270.15 64.0254 1271.33 64.4287 1272.48 64.9209C1273.63 65.4131 1274.56 66.1035 1275.29 66.9922C1276.01 67.8672 1276.35 69.0361 1276.29 70.499C1276.25 71.7432 1275.92 72.8096 1275.31 73.6982C1274.69 74.5732 1273.9 75.291 1272.93 75.8516C1271.97 76.3984 1270.93 76.7949 1269.81 77.041C1268.7 77.3008 1267.62 77.4238 1266.55 77.4102C1265.06 77.3828 1263.66 77.082 1262.35 76.5078C1261.05 75.9336 1259.99 75.0996 1259.19 74.0059C1258.38 72.8984 1257.97 71.5449 1257.96 69.9453L1263.37 69.9658C1263.39 70.6768 1263.53 71.2783 1263.8 71.7705C1264.08 72.2627 1264.47 72.6387 1264.97 72.8984C1265.49 73.1445 1266.11 73.2676 1266.82 73.2676C1267.38 73.2812 1267.93 73.2061 1268.48 73.042C1269.04 72.8779 1269.52 72.6113 1269.93 72.2422C1270.34 71.8594 1270.6 71.3604 1270.71 70.7451ZM1290.92 47.1406L1286.66 67.874H1281.86L1284.79 47.1406H1290.92ZM1279.93 74.3955C1279.9 73.4658 1280.2 72.707 1280.83 72.1191C1281.48 71.5176 1282.25 71.2168 1283.15 71.2168C1284.03 71.2031 1284.78 71.4766 1285.41 72.0371C1286.04 72.584 1286.36 73.3018 1286.37 74.1904C1286.38 75.1064 1286.07 75.8652 1285.43 76.4668C1284.8 77.0547 1284.03 77.3486 1283.13 77.3486C1282.27 77.3623 1281.52 77.0957 1280.9 76.5488C1280.27 76.002 1279.95 75.2842 1279.93 74.3955Z" fill="#3E3E3E"/>
<path d="M5 2V122H644.701L665.708 61L644.701 2H5Z" fill="#142B57" stroke="#142B57"/>
<path d="M204.294 62.2041V67.7617H183.827V62.2041H204.294ZM197.116 54.2676V76.0059H191.087V54.2676H197.116ZM213.574 65.5469L208.488 64.3369L210.231 49.1406H227.334V54.2061H215.481L214.763 60.502C215.132 60.2832 215.713 60.0439 216.506 59.7842C217.299 59.5107 218.188 59.374 219.172 59.374C220.635 59.374 221.934 59.5996 223.069 60.0508C224.203 60.502 225.16 61.1582 225.94 62.0195C226.733 62.8672 227.327 63.9131 227.724 65.1572C228.134 66.4014 228.339 67.8164 228.339 69.4023C228.339 70.7148 228.134 71.9727 227.724 73.1758C227.314 74.3652 226.685 75.4316 225.837 76.375C225.003 77.3047 223.944 78.043 222.659 78.5898C221.373 79.1367 219.863 79.4102 218.126 79.4102C216.814 79.4102 215.542 79.2119 214.312 78.8154C213.081 78.4189 211.974 77.8447 210.99 77.0928C210.019 76.3271 209.246 75.3975 208.672 74.3037C208.112 73.21 207.825 71.9795 207.811 70.6123H214.209C214.278 71.4053 214.476 72.0889 214.804 72.6631C215.132 73.2236 215.576 73.6611 216.137 73.9756C216.698 74.2764 217.347 74.4268 218.085 74.4268C218.796 74.4268 219.398 74.29 219.89 74.0166C220.382 73.7295 220.772 73.3398 221.059 72.8477C221.36 72.3555 221.578 71.7812 221.715 71.125C221.852 70.4688 221.92 69.7646 221.92 69.0127C221.92 68.2334 221.831 67.5361 221.654 66.9209C221.476 66.292 221.202 65.7588 220.833 65.3213C220.464 64.8701 219.993 64.5283 219.418 64.2959C218.858 64.0498 218.181 63.9268 217.388 63.9268C216.349 63.9268 215.535 64.0977 214.948 64.4395C214.36 64.7812 213.902 65.1504 213.574 65.5469ZM252.917 61.4043V66.7158C252.917 68.9033 252.671 70.7969 252.179 72.3965C251.701 73.9961 251.003 75.3154 250.087 76.3545C249.185 77.3936 248.105 78.166 246.847 78.6719C245.603 79.1641 244.222 79.4102 242.705 79.4102C241.488 79.4102 240.353 79.2529 239.3 78.9385C238.247 78.624 237.297 78.1387 236.45 77.4824C235.616 76.8125 234.898 75.9785 234.296 74.9805C233.695 73.9824 233.23 72.793 232.902 71.4121C232.587 70.0312 232.43 68.4658 232.43 66.7158V61.4043C232.43 59.1895 232.669 57.2891 233.148 55.7031C233.64 54.1172 234.344 52.8047 235.26 51.7656C236.176 50.7266 237.256 49.9609 238.5 49.4688C239.758 48.9766 241.146 48.7305 242.663 48.7305C243.88 48.7305 245.008 48.8877 246.047 49.2021C247.1 49.5166 248.05 50.002 248.898 50.6582C249.746 51.3145 250.463 52.1416 251.051 53.1396C251.653 54.1377 252.111 55.3271 252.425 56.708C252.753 58.0752 252.917 59.6406 252.917 61.4043ZM246.519 67.5156V60.5635C246.519 59.5381 246.457 58.6494 246.334 57.8975C246.225 57.1318 246.061 56.4824 245.842 55.9492C245.637 55.416 245.377 54.9854 245.063 54.6572C244.748 54.3291 244.386 54.0898 243.976 53.9395C243.58 53.7754 243.142 53.6934 242.663 53.6934C242.062 53.6934 241.522 53.8164 241.043 54.0625C240.565 54.3086 240.162 54.6982 239.833 55.2314C239.505 55.751 239.252 56.4551 239.075 57.3438C238.911 58.2188 238.829 59.292 238.829 60.5635V67.5156C238.829 68.541 238.883 69.4365 238.993 70.2021C239.116 70.9678 239.28 71.624 239.485 72.1709C239.704 72.7041 239.97 73.1416 240.285 73.4834C240.599 73.8115 240.961 74.0508 241.371 74.2012C241.782 74.3516 242.226 74.4268 242.705 74.4268C243.306 74.4268 243.839 74.3105 244.304 74.0781C244.769 73.832 245.165 73.4424 245.494 72.9092C245.835 72.3623 246.088 71.6445 246.252 70.7559C246.43 69.8672 246.519 68.7871 246.519 67.5156ZM272.574 48.7715H273.558V53.8574H273.189C271.753 53.8574 270.441 54.0625 269.251 54.4727C268.076 54.8828 267.057 55.4912 266.196 56.2979C265.334 57.0908 264.671 58.0752 264.207 59.251C263.755 60.4131 263.53 61.7529 263.53 63.2705V68.3564C263.53 69.3818 263.619 70.2773 263.796 71.043C263.988 71.7949 264.261 72.4238 264.617 72.9297C264.986 73.4219 265.43 73.7979 265.95 74.0576C266.469 74.3037 267.057 74.4268 267.713 74.4268C268.301 74.4268 268.841 74.2969 269.333 74.0371C269.826 73.7773 270.25 73.4082 270.605 72.9297C270.96 72.4512 271.234 71.8975 271.425 71.2686C271.617 70.626 271.712 69.9287 271.712 69.1768C271.712 68.3838 271.61 67.666 271.405 67.0234C271.213 66.3672 270.933 65.8066 270.564 65.3418C270.208 64.877 269.771 64.5215 269.251 64.2754C268.732 64.0156 268.158 63.8857 267.529 63.8857C266.626 63.8857 265.847 64.0908 265.191 64.501C264.535 64.9111 264.029 65.4375 263.673 66.0801C263.318 66.7227 263.133 67.3789 263.12 68.0488L261.417 66.6338C261.417 65.7041 261.602 64.7881 261.971 63.8857C262.354 62.9697 262.894 62.1426 263.591 61.4043C264.289 60.6523 265.143 60.0576 266.155 59.6201C267.18 59.1689 268.349 58.9434 269.662 58.9434C271.042 58.9434 272.259 59.21 273.312 59.7432C274.365 60.2627 275.247 60.9873 275.958 61.917C276.682 62.8467 277.222 63.9336 277.578 65.1777C277.947 66.4082 278.131 67.7275 278.131 69.1357C278.131 70.585 277.878 71.9385 277.373 73.1963C276.88 74.4404 276.183 75.5273 275.281 76.457C274.378 77.3867 273.298 78.1113 272.041 78.6309C270.796 79.1504 269.409 79.4102 267.877 79.4102C266.291 79.4102 264.842 79.1299 263.53 78.5693C262.231 78.0088 261.096 77.209 260.125 76.1699C259.168 75.1172 258.423 73.8594 257.89 72.3965C257.371 70.9336 257.111 69.293 257.111 67.4746V65.0752C257.111 62.5869 257.494 60.3447 258.259 58.3486C259.039 56.3525 260.119 54.6436 261.5 53.2217C262.894 51.7861 264.535 50.6855 266.421 49.9199C268.308 49.1543 270.359 48.7715 272.574 48.7715ZM313.137 70.7969C313.137 72.6836 312.693 74.2695 311.804 75.5547C310.916 76.8398 309.699 77.8037 308.154 78.4463C306.623 79.0889 304.873 79.4102 302.904 79.4102C300.949 79.4102 299.192 79.0889 297.633 78.4463C296.089 77.8037 294.865 76.8398 293.963 75.5547C293.06 74.2695 292.609 72.6836 292.609 70.7969C292.609 69.5117 292.862 68.3564 293.368 67.3311C293.887 66.3057 294.605 65.4307 295.521 64.7061C296.451 63.9814 297.538 63.4277 298.782 63.0449C300.04 62.6621 301.4 62.4707 302.863 62.4707C304.832 62.4707 306.589 62.8125 308.133 63.4961C309.692 64.166 310.916 65.123 311.804 66.3672C312.693 67.6113 313.137 69.0879 313.137 70.7969ZM306.698 70.3252C306.698 69.4502 306.534 68.7119 306.206 68.1104C305.891 67.4951 305.447 67.0234 304.873 66.6953C304.298 66.3535 303.629 66.1826 302.863 66.1826C302.097 66.1826 301.427 66.3535 300.853 66.6953C300.279 67.0234 299.828 67.4951 299.5 68.1104C299.185 68.7119 299.028 69.4502 299.028 70.3252C299.028 71.1729 299.192 71.9111 299.52 72.54C299.848 73.1553 300.299 73.627 300.874 73.9551C301.448 74.2695 302.125 74.4268 302.904 74.4268C303.683 74.4268 304.353 74.2695 304.914 73.9551C305.474 73.627 305.912 73.1553 306.226 72.54C306.541 71.9111 306.698 71.1729 306.698 70.3252ZM312.502 57.0771C312.502 58.6221 312.091 59.9824 311.271 61.1582C310.465 62.3203 309.337 63.2295 307.887 63.8857C306.438 64.5283 304.777 64.8496 302.904 64.8496C301.031 64.8496 299.363 64.5283 297.9 63.8857C296.451 63.2295 295.309 62.3203 294.475 61.1582C293.655 59.9824 293.245 58.6221 293.245 57.0771C293.245 55.2725 293.655 53.748 294.475 52.5039C295.309 51.2598 296.451 50.3164 297.9 49.6738C299.349 49.0312 301.004 48.71 302.863 48.71C304.75 48.71 306.418 49.0312 307.867 49.6738C309.316 50.3164 310.451 51.2598 311.271 52.5039C312.091 53.748 312.502 55.2725 312.502 57.0771ZM306.103 57.4053C306.103 56.6533 305.973 56.0039 305.714 55.457C305.467 54.8965 305.105 54.4658 304.627 54.165C304.148 53.8506 303.56 53.6934 302.863 53.6934C302.193 53.6934 301.619 53.8438 301.14 54.1445C300.662 54.4316 300.293 54.8555 300.033 55.416C299.787 55.9629 299.664 56.626 299.664 57.4053C299.664 58.1709 299.787 58.8408 300.033 59.415C300.293 59.9756 300.662 60.4199 301.14 60.748C301.632 61.0625 302.22 61.2197 302.904 61.2197C303.601 61.2197 304.182 61.0625 304.647 60.748C305.126 60.4199 305.488 59.9756 305.734 59.415C305.98 58.8408 306.103 58.1709 306.103 57.4053ZM321.637 74.1807H322.048C323.551 74.1807 324.871 74.0098 326.006 73.668C327.14 73.3125 328.091 72.7861 328.856 72.0889C329.635 71.3779 330.223 70.4961 330.62 69.4434C331.016 68.377 331.215 67.1191 331.215 65.6699V59.7637C331.215 58.7383 331.119 57.8496 330.927 57.0977C330.75 56.332 330.483 55.6963 330.128 55.1904C329.772 54.6846 329.355 54.3086 328.877 54.0625C328.398 53.8164 327.872 53.6934 327.298 53.6934C326.696 53.6934 326.163 53.8506 325.698 54.165C325.247 54.4795 324.857 54.9033 324.529 55.4365C324.201 55.9697 323.955 56.5713 323.791 57.2412C323.627 57.9111 323.545 58.5947 323.545 59.292C323.545 60.0439 323.627 60.748 323.791 61.4043C323.968 62.0605 324.221 62.6348 324.55 63.127C324.878 63.6191 325.295 64.0088 325.801 64.2959C326.306 64.5693 326.894 64.7061 327.564 64.7061C328.234 64.7061 328.815 64.583 329.307 64.3369C329.813 64.0908 330.237 63.7627 330.579 63.3525C330.934 62.9424 331.201 62.498 331.379 62.0195C331.556 61.5273 331.645 61.042 331.645 60.5635L333.614 61.876C333.614 62.792 333.409 63.6943 332.999 64.583C332.602 65.4717 332.049 66.2783 331.338 67.0029C330.627 67.7275 329.8 68.3086 328.856 68.7461C327.926 69.1699 326.935 69.3818 325.883 69.3818C324.515 69.3818 323.285 69.1357 322.191 68.6436C321.111 68.1514 320.195 67.4609 319.443 66.5723C318.691 65.6699 318.117 64.6035 317.72 63.373C317.324 62.1426 317.126 60.7891 317.126 59.3125C317.126 57.8633 317.372 56.5029 317.864 55.2314C318.356 53.9463 319.053 52.8184 319.956 51.8477C320.858 50.877 321.931 50.1113 323.176 49.5508C324.433 48.9902 325.821 48.71 327.339 48.71C328.829 48.71 330.196 48.9971 331.44 49.5713C332.684 50.1318 333.771 50.9385 334.701 51.9912C335.631 53.0439 336.348 54.3223 336.854 55.8262C337.374 57.3301 337.634 59.0254 337.634 60.9121V63.127C337.634 65.1504 337.401 67.0098 336.936 68.7051C336.471 70.4004 335.788 71.9043 334.885 73.2168C333.997 74.5293 332.917 75.6436 331.645 76.5596C330.387 77.4756 328.959 78.1729 327.359 78.6514C325.773 79.1162 324.037 79.3486 322.15 79.3486H321.637V74.1807ZM357.433 48.7715H358.418V53.8574H358.049C356.613 53.8574 355.301 54.0625 354.111 54.4727C352.935 54.8828 351.917 55.4912 351.055 56.2979C350.194 57.0908 349.531 58.0752 349.066 59.251C348.615 60.4131 348.389 61.7529 348.389 63.2705V68.3564C348.389 69.3818 348.478 70.2773 348.656 71.043C348.847 71.7949 349.121 72.4238 349.476 72.9297C349.846 73.4219 350.29 73.7979 350.809 74.0576C351.329 74.3037 351.917 74.4268 352.573 74.4268C353.161 74.4268 353.701 74.2969 354.193 74.0371C354.685 73.7773 355.109 73.4082 355.465 72.9297C355.82 72.4512 356.094 71.8975 356.285 71.2686C356.476 70.626 356.572 69.9287 356.572 69.1768C356.572 68.3838 356.47 67.666 356.264 67.0234C356.073 66.3672 355.793 65.8066 355.424 65.3418C355.068 64.877 354.631 64.5215 354.111 64.2754C353.592 64.0156 353.017 63.8857 352.388 63.8857C351.486 63.8857 350.707 64.0908 350.051 64.501C349.394 64.9111 348.888 65.4375 348.533 66.0801C348.178 66.7227 347.993 67.3789 347.979 68.0488L346.277 66.6338C346.277 65.7041 346.462 64.7881 346.831 63.8857C347.214 62.9697 347.754 62.1426 348.451 61.4043C349.148 60.6523 350.003 60.0576 351.014 59.6201C352.04 59.1689 353.209 58.9434 354.521 58.9434C355.902 58.9434 357.119 59.21 358.172 59.7432C359.224 60.2627 360.106 60.9873 360.817 61.917C361.542 62.8467 362.082 63.9336 362.437 65.1777C362.806 66.4082 362.991 67.7275 362.991 69.1357C362.991 70.585 362.738 71.9385 362.232 73.1963C361.74 74.4404 361.043 75.5273 360.14 76.457C359.238 77.3867 358.158 78.1113 356.9 78.6309C355.656 79.1504 354.268 79.4102 352.737 79.4102C351.151 79.4102 349.702 79.1299 348.389 78.5693C347.091 78.0088 345.956 77.209 344.985 76.1699C344.028 75.1172 343.283 73.8594 342.75 72.3965C342.23 70.9336 341.971 69.293 341.971 67.4746V65.0752C341.971 62.5869 342.353 60.3447 343.119 58.3486C343.898 56.3525 344.978 54.6436 346.359 53.2217C347.754 51.7861 349.394 50.6855 351.281 49.9199C353.168 49.1543 355.219 48.7715 357.433 48.7715ZM387.098 61.4043V66.7158C387.098 68.9033 386.851 70.7969 386.359 72.3965C385.881 73.9961 385.183 75.3154 384.267 76.3545C383.365 77.3936 382.285 78.166 381.027 78.6719C379.783 79.1641 378.402 79.4102 376.885 79.4102C375.668 79.4102 374.533 79.2529 373.48 78.9385C372.428 78.624 371.477 78.1387 370.63 77.4824C369.796 76.8125 369.078 75.9785 368.476 74.9805C367.875 73.9824 367.41 72.793 367.082 71.4121C366.767 70.0312 366.61 68.4658 366.61 66.7158V61.4043C366.61 59.1895 366.85 57.2891 367.328 55.7031C367.82 54.1172 368.524 52.8047 369.44 51.7656C370.356 50.7266 371.436 49.9609 372.681 49.4688C373.938 48.9766 375.326 48.7305 376.844 48.7305C378.06 48.7305 379.188 48.8877 380.227 49.2021C381.28 49.5166 382.23 50.002 383.078 50.6582C383.926 51.3145 384.643 52.1416 385.231 53.1396C385.833 54.1377 386.291 55.3271 386.605 56.708C386.933 58.0752 387.098 59.6406 387.098 61.4043ZM380.699 67.5156V60.5635C380.699 59.5381 380.638 58.6494 380.515 57.8975C380.405 57.1318 380.241 56.4824 380.022 55.9492C379.817 55.416 379.558 54.9854 379.243 54.6572C378.929 54.3291 378.566 54.0898 378.156 53.9395C377.76 53.7754 377.322 53.6934 376.844 53.6934C376.242 53.6934 375.702 53.8164 375.224 54.0625C374.745 54.3086 374.342 54.6982 374.014 55.2314C373.685 55.751 373.433 56.4551 373.255 57.3438C373.091 58.2188 373.009 59.292 373.009 60.5635V67.5156C373.009 68.541 373.063 69.4365 373.173 70.2021C373.296 70.9678 373.46 71.624 373.665 72.1709C373.884 72.7041 374.15 73.1416 374.465 73.4834C374.779 73.8115 375.141 74.0508 375.552 74.2012C375.962 74.3516 376.406 74.4268 376.885 74.4268C377.486 74.4268 378.019 74.3105 378.484 74.0781C378.949 73.832 379.346 73.4424 379.674 72.9092C380.016 72.3623 380.268 71.6445 380.433 70.7559C380.61 69.8672 380.699 68.7871 380.699 67.5156ZM407.953 65.5469L402.867 64.3369L404.61 49.1406H421.714V54.2061H409.86L409.143 60.502C409.512 60.2832 410.093 60.0439 410.886 59.7842C411.679 59.5107 412.567 59.374 413.552 59.374C415.015 59.374 416.314 59.5996 417.448 60.0508C418.583 60.502 419.54 61.1582 420.319 62.0195C421.112 62.8672 421.707 63.9131 422.104 65.1572C422.514 66.4014 422.719 67.8164 422.719 69.4023C422.719 70.7148 422.514 71.9727 422.104 73.1758C421.693 74.3652 421.064 75.4316 420.217 76.375C419.383 77.3047 418.323 78.043 417.038 78.5898C415.753 79.1367 414.242 79.4102 412.506 79.4102C411.193 79.4102 409.922 79.2119 408.691 78.8154C407.461 78.4189 406.354 77.8447 405.369 77.0928C404.398 76.3271 403.626 75.3975 403.052 74.3037C402.491 73.21 402.204 71.9795 402.19 70.6123H408.589C408.657 71.4053 408.856 72.0889 409.184 72.6631C409.512 73.2236 409.956 73.6611 410.517 73.9756C411.077 74.2764 411.727 74.4268 412.465 74.4268C413.176 74.4268 413.777 74.29 414.27 74.0166C414.762 73.7295 415.151 73.3398 415.439 72.8477C415.739 72.3555 415.958 71.7812 416.095 71.125C416.231 70.4688 416.3 69.7646 416.3 69.0127C416.3 68.2334 416.211 67.5361 416.033 66.9209C415.856 66.292 415.582 65.7588 415.213 65.3213C414.844 64.8701 414.372 64.5283 413.798 64.2959C413.237 64.0498 412.561 63.9268 411.768 63.9268C410.729 63.9268 409.915 64.0977 409.327 64.4395C408.739 64.7812 408.281 65.1504 407.953 65.5469ZM447.523 74.0166V79H426.892V74.7754L436.53 64.5625C437.433 63.5234 438.151 62.6074 438.684 61.8145C439.231 61.0215 439.627 60.3037 439.873 59.6611C440.119 59.0049 440.242 58.4033 440.242 57.8564C440.242 56.9678 440.099 56.2158 439.812 55.6006C439.538 54.9854 439.135 54.5137 438.602 54.1855C438.068 53.8574 437.419 53.6934 436.653 53.6934C435.833 53.6934 435.129 53.9053 434.541 54.3291C433.953 54.7529 433.502 55.3408 433.188 56.0928C432.873 56.8311 432.716 57.6719 432.716 58.6152H426.276C426.276 56.7969 426.714 55.1426 427.589 53.6523C428.464 52.1484 429.688 50.9521 431.26 50.0635C432.832 49.1611 434.671 48.71 436.776 48.71C438.937 48.71 440.748 49.0518 442.211 49.7354C443.674 50.4189 444.781 51.3965 445.533 52.668C446.285 53.9395 446.661 55.4707 446.661 57.2617C446.661 58.2734 446.497 59.251 446.169 60.1943C445.855 61.1377 445.397 62.0742 444.795 63.0039C444.193 63.9336 443.469 64.8838 442.621 65.8545C441.774 66.8115 440.817 67.8232 439.75 68.8896L435.238 74.0166H447.523ZM472.183 74.0166V79H451.552V74.7754L461.191 64.5625C462.093 63.5234 462.811 62.6074 463.344 61.8145C463.891 61.0215 464.287 60.3037 464.533 59.6611C464.78 59.0049 464.903 58.4033 464.903 57.8564C464.903 56.9678 464.759 56.2158 464.472 55.6006C464.198 54.9854 463.795 54.5137 463.262 54.1855C462.729 53.8574 462.079 53.6934 461.314 53.6934C460.493 53.6934 459.789 53.9053 459.201 54.3291C458.613 54.7529 458.162 55.3408 457.848 56.0928C457.533 56.8311 457.376 57.6719 457.376 58.6152H450.937C450.937 56.7969 451.374 55.1426 452.249 53.6523C453.124 52.1484 454.348 50.9521 455.92 50.0635C457.492 49.1611 459.331 48.71 461.437 48.71C463.597 48.71 465.408 49.0518 466.871 49.7354C468.334 50.4189 469.442 51.3965 470.194 52.668C470.946 53.9395 471.322 55.4707 471.322 57.2617C471.322 58.2734 471.157 59.251 470.829 60.1943C470.515 61.1377 470.057 62.0742 469.455 63.0039C468.854 63.9336 468.129 64.8838 467.281 65.8545C466.434 66.8115 465.477 67.8232 464.41 68.8896L459.899 74.0166H472.183ZM480.478 74.1807H480.888C482.392 74.1807 483.711 74.0098 484.846 73.668C485.981 73.3125 486.931 72.7861 487.697 72.0889C488.476 71.3779 489.064 70.4961 489.46 69.4434C489.857 68.377 490.055 67.1191 490.055 65.6699V59.7637C490.055 58.7383 489.959 57.8496 489.768 57.0977C489.59 56.332 489.324 55.6963 488.968 55.1904C488.613 54.6846 488.196 54.3086 487.717 54.0625C487.239 53.8164 486.712 53.6934 486.138 53.6934C485.536 53.6934 485.003 53.8506 484.538 54.165C484.087 54.4795 483.698 54.9033 483.369 55.4365C483.041 55.9697 482.795 56.5713 482.631 57.2412C482.467 57.9111 482.385 58.5947 482.385 59.292C482.385 60.0439 482.467 60.748 482.631 61.4043C482.809 62.0605 483.062 62.6348 483.39 63.127C483.718 63.6191 484.135 64.0088 484.641 64.2959C485.147 64.5693 485.735 64.7061 486.405 64.7061C487.074 64.7061 487.656 64.583 488.148 64.3369C488.654 64.0908 489.077 63.7627 489.419 63.3525C489.775 62.9424 490.041 62.498 490.219 62.0195C490.397 61.5273 490.486 61.042 490.486 60.5635L492.454 61.876C492.454 62.792 492.249 63.6943 491.839 64.583C491.443 65.4717 490.889 66.2783 490.178 67.0029C489.467 67.7275 488.64 68.3086 487.697 68.7461C486.767 69.1699 485.776 69.3818 484.723 69.3818C483.356 69.3818 482.125 69.1357 481.032 68.6436C479.951 68.1514 479.035 67.4609 478.283 66.5723C477.532 65.6699 476.957 64.6035 476.561 63.373C476.164 62.1426 475.966 60.7891 475.966 59.3125C475.966 57.8633 476.212 56.5029 476.704 55.2314C477.197 53.9463 477.894 52.8184 478.796 51.8477C479.699 50.877 480.772 50.1113 482.016 49.5508C483.274 48.9902 484.661 48.71 486.179 48.71C487.669 48.71 489.036 48.9971 490.281 49.5713C491.525 50.1318 492.612 50.9385 493.541 51.9912C494.471 53.0439 495.189 54.3223 495.695 55.8262C496.214 57.3301 496.474 59.0254 496.474 60.9121V63.127C496.474 65.1504 496.241 67.0098 495.777 68.7051C495.312 70.4004 494.628 71.9043 493.726 73.2168C492.837 74.5293 491.757 75.6436 490.486 76.5596C489.228 77.4756 487.799 78.1729 486.199 78.6514C484.614 79.1162 482.877 79.3486 480.991 79.3486H480.478V74.1807Z" fill="white"/>
<g clip-path="url(#clip0_28_83)">
<path fill-rule="evenodd" clip-rule="evenodd" d="M127.497 27C108.101 27 92.323 42.6994 92.323 61.9997C92.323 69.654 94.8044 76.7526 99.0226 82.5143L94.6387 95.518L108.162 91.2185C113.725 94.881 120.362 97 127.517 97C146.914 97 162.691 81.3001 162.691 62.0003C162.691 42.7 146.914 27.0006 127.517 27.0006L127.497 27ZM117.674 44.7783C116.992 43.1529 116.475 43.0914 115.442 43.0495C115.09 43.0292 114.697 43.0089 114.263 43.0089C112.918 43.0089 111.512 43.3997 110.664 44.2638C109.631 45.3131 107.066 47.7614 107.066 52.7822C107.066 57.8029 110.747 62.6588 111.243 63.3382C111.76 64.0165 118.419 74.4692 128.758 78.7293C136.843 82.0625 139.242 81.7536 141.082 81.3627C143.77 80.7867 147.141 78.8106 147.989 76.4245C148.837 74.0372 148.837 72 148.589 71.568C148.341 71.136 147.658 70.8897 146.624 70.3746C145.591 69.8601 140.565 67.391 139.614 67.0617C138.683 66.7121 137.794 66.8358 137.092 67.8236C136.099 69.2022 135.127 70.6017 134.341 71.4449C133.721 72.1034 132.707 72.1859 131.86 71.8357C130.722 71.363 127.538 70.2509 123.609 66.7737C120.569 64.0786 118.501 60.7251 117.902 59.7169C117.302 58.6885 117.84 58.091 118.315 57.5358C118.832 56.8976 119.328 56.4452 119.845 55.8483C120.362 55.2519 120.652 54.943 120.983 54.2432C121.335 53.5644 121.086 52.8646 120.838 52.3501C120.59 51.8356 118.522 46.8148 117.674 44.7783Z" fill="#67C15E"/>
</g>
<path d="M2025 2H1384.28L1401.6 60L1384.28 122H2025V60V2Z" fill="#142B57" stroke="#142B57"/>
<path d="M1546.55 52.8105V75H1540.62V52.8105H1546.55ZM1540.25 47.0273C1540.25 46.166 1540.55 45.4551 1541.15 44.8945C1541.75 44.334 1542.56 44.0537 1543.57 44.0537C1544.57 44.0537 1545.37 44.334 1545.97 44.8945C1546.59 45.4551 1546.9 46.166 1546.9 47.0273C1546.9 47.8887 1546.59 48.5996 1545.97 49.1602C1545.37 49.7207 1544.57 50.001 1543.57 50.001C1542.56 50.001 1541.75 49.7207 1541.15 49.1602C1540.55 48.5996 1540.25 47.8887 1540.25 47.0273ZM1557.63 57.5479V75H1551.72V52.8105H1557.26L1557.63 57.5479ZM1556.77 63.126H1555.17C1555.17 61.4854 1555.38 60.0088 1555.81 58.6963C1556.23 57.3701 1556.82 56.2422 1557.59 55.3125C1558.36 54.3691 1559.26 53.6514 1560.32 53.1592C1561.38 52.6533 1562.57 52.4004 1563.89 52.4004C1564.92 52.4004 1565.87 52.5508 1566.74 52.8516C1567.6 53.1523 1568.34 53.6309 1568.95 54.2871C1569.58 54.9434 1570.06 55.8115 1570.39 56.8916C1570.73 57.9717 1570.9 59.291 1570.9 60.8496V75H1564.95V60.8291C1564.95 59.8447 1564.82 59.0791 1564.54 58.5322C1564.27 57.9854 1563.87 57.6025 1563.33 57.3838C1562.81 57.1514 1562.17 57.0352 1561.4 57.0352C1560.61 57.0352 1559.92 57.1924 1559.33 57.5068C1558.76 57.8213 1558.28 58.2588 1557.9 58.8193C1557.53 59.3662 1557.25 60.0088 1557.06 60.7471C1556.87 61.4854 1556.77 62.2783 1556.77 63.126ZM1583.34 75H1577.39V50.8418C1577.39 49.1602 1577.72 47.7451 1578.37 46.5967C1579.04 45.4346 1579.98 44.5596 1581.18 43.9717C1582.4 43.3701 1583.84 43.0693 1585.51 43.0693C1586.06 43.0693 1586.58 43.1104 1587.09 43.1924C1587.6 43.2607 1588.09 43.3496 1588.57 43.459L1588.5 47.9092C1588.25 47.8408 1587.97 47.793 1587.68 47.7656C1587.4 47.7383 1587.06 47.7246 1586.68 47.7246C1585.97 47.7246 1585.36 47.8477 1584.85 48.0938C1584.36 48.3262 1583.99 48.6748 1583.73 49.1396C1583.47 49.6045 1583.34 50.1719 1583.34 50.8418V75ZM1587.77 52.8105V56.9941H1574.09V52.8105H1587.77ZM1590.34 64.1309V63.7002C1590.34 62.0732 1590.57 60.5762 1591.04 59.209C1591.5 57.8281 1592.18 56.6318 1593.07 55.6201C1593.96 54.6084 1595.05 53.8223 1596.35 53.2617C1597.65 52.6875 1599.14 52.4004 1600.82 52.4004C1602.5 52.4004 1604 52.6875 1605.31 53.2617C1606.62 53.8223 1607.72 54.6084 1608.61 55.6201C1609.51 56.6318 1610.2 57.8281 1610.66 59.209C1611.13 60.5762 1611.36 62.0732 1611.36 63.7002V64.1309C1611.36 65.7441 1611.13 67.2412 1610.66 68.6221C1610.2 69.9893 1609.51 71.1855 1608.61 72.2109C1607.72 73.2227 1606.63 74.0088 1605.33 74.5693C1604.03 75.1299 1602.54 75.4102 1600.86 75.4102C1599.18 75.4102 1597.68 75.1299 1596.37 74.5693C1595.07 74.0088 1593.97 73.2227 1593.07 72.2109C1592.18 71.1855 1591.5 69.9893 1591.04 68.6221C1590.57 67.2412 1590.34 65.7441 1590.34 64.1309ZM1596.25 63.7002V64.1309C1596.25 65.0605 1596.33 65.9287 1596.49 66.7354C1596.66 67.542 1596.92 68.2529 1597.27 68.8682C1597.64 69.4697 1598.12 69.9414 1598.71 70.2832C1599.3 70.625 1600.01 70.7959 1600.86 70.7959C1601.68 70.7959 1602.38 70.625 1602.97 70.2832C1603.56 69.9414 1604.03 69.4697 1604.39 68.8682C1604.74 68.2529 1605 67.542 1605.17 66.7354C1605.34 65.9287 1605.43 65.0605 1605.43 64.1309V63.7002C1605.43 62.7979 1605.34 61.9502 1605.17 61.1572C1605 60.3506 1604.74 59.6396 1604.37 59.0244C1604.01 58.3955 1603.54 57.9033 1602.95 57.5479C1602.36 57.1924 1601.65 57.0146 1600.82 57.0146C1599.99 57.0146 1599.27 57.1924 1598.69 57.5479C1598.11 57.9033 1597.64 58.3955 1597.27 59.0244C1596.92 59.6396 1596.66 60.3506 1596.49 61.1572C1596.33 61.9502 1596.25 62.7979 1596.25 63.7002ZM1648.98 64.0283C1648.93 65.4229 1648.72 66.7969 1648.37 68.1504C1648.01 69.5039 1647.47 70.7275 1646.75 71.8213C1646.04 72.915 1645.13 73.79 1644.02 74.4463C1642.91 75.1025 1641.57 75.4307 1640 75.4307C1639.11 75.4307 1638.31 75.2734 1637.6 74.959C1636.89 74.6445 1636.29 74.2002 1635.8 73.626C1635.3 73.0381 1634.94 72.334 1634.71 71.5137C1634.48 70.6934 1634.39 69.7705 1634.46 68.7451L1635.51 56.9326H1639.61L1638.58 68.7451C1638.5 69.4561 1638.51 70.0371 1638.6 70.4883C1638.71 70.9395 1638.88 71.2881 1639.1 71.5342C1639.33 71.7803 1639.59 71.958 1639.88 72.0674C1640.18 72.1631 1640.47 72.2109 1640.76 72.2109C1641.41 72.2109 1642.02 72.0059 1642.56 71.5957C1643.11 71.1855 1643.58 70.6182 1643.98 69.8936C1644.37 69.1689 1644.69 68.3213 1644.92 67.3506C1645.15 66.3662 1645.28 65.3066 1645.31 64.1719C1645.41 62.3535 1645.32 60.6719 1645.04 59.127C1644.78 57.582 1644.33 56.2012 1643.69 54.9844C1643.06 53.7539 1642.24 52.7148 1641.23 51.8672C1640.22 51.0059 1639.01 50.3496 1637.62 49.8984C1636.23 49.4336 1634.63 49.2012 1632.84 49.2012C1631.16 49.2012 1629.61 49.4609 1628.19 49.9805C1626.78 50.5 1625.51 51.2451 1624.39 52.2158C1623.29 53.1865 1622.33 54.3486 1621.52 55.7021C1620.73 57.042 1620.1 58.5391 1619.63 60.1934C1619.18 61.834 1618.92 63.5977 1618.84 65.4844C1618.74 67.4668 1618.84 69.2715 1619.14 70.8984C1619.46 72.5254 1619.96 73.9541 1620.64 75.1846C1621.34 76.4287 1622.21 77.4678 1623.24 78.3018C1624.28 79.1357 1625.49 79.7646 1626.87 80.1885C1628.26 80.6123 1629.79 80.8242 1631.49 80.8242C1632.68 80.8242 1633.89 80.6875 1635.12 80.4141C1636.36 80.1543 1637.41 79.8193 1638.26 79.4092L1639.04 82.4648C1638.08 83.0801 1636.88 83.5381 1635.45 83.8389C1634.02 84.1396 1632.68 84.29 1631.41 84.29C1629.23 84.29 1627.25 84.0234 1625.46 83.4902C1623.68 82.9707 1622.11 82.1914 1620.74 81.1523C1619.38 80.127 1618.23 78.8555 1617.32 77.3379C1616.42 75.8203 1615.75 74.0703 1615.31 72.0879C1614.88 70.1055 1614.72 67.9043 1614.82 65.4844C1614.91 63.2422 1615.26 61.1299 1615.86 59.1475C1616.46 57.165 1617.28 55.3672 1618.32 53.7539C1619.36 52.1406 1620.61 50.7529 1622.05 49.5908C1623.52 48.415 1625.16 47.5127 1626.98 46.8838C1628.8 46.2549 1630.78 45.9404 1632.92 45.9404C1635.06 45.9404 1636.99 46.2207 1638.73 46.7812C1640.48 47.3418 1642.01 48.1484 1643.32 49.2012C1644.63 50.2402 1645.73 51.5049 1646.6 52.9951C1647.48 54.4717 1648.11 56.1396 1648.51 57.999C1648.91 59.8584 1649.06 61.8682 1648.98 64.0283ZM1628.27 66.1816C1628.2 67.084 1628.21 67.8838 1628.29 68.5811C1628.37 69.2783 1628.53 69.8662 1628.76 70.3447C1628.99 70.8232 1629.29 71.1855 1629.66 71.4316C1630.05 71.6641 1630.5 71.7803 1631.02 71.7803C1631.3 71.7803 1631.62 71.7119 1631.96 71.5752C1632.3 71.4248 1632.65 71.1787 1633.01 70.8369C1633.36 70.4951 1633.7 70.0234 1634.01 69.4219C1634.34 68.8066 1634.61 68.0342 1634.83 67.1045L1636.57 69.1758C1636.26 70.2012 1635.87 71.1035 1635.41 71.8828C1634.94 72.6484 1634.41 73.291 1633.81 73.8105C1633.22 74.3301 1632.58 74.7197 1631.88 74.9795C1631.18 75.2393 1630.43 75.3691 1629.62 75.3691C1628.62 75.3691 1627.74 75.1572 1626.96 74.7334C1626.18 74.2959 1625.53 73.6738 1625.01 72.8672C1624.49 72.0605 1624.11 71.0967 1623.88 69.9756C1623.66 68.8408 1623.62 67.5762 1623.76 66.1816C1623.91 64.7871 1624.18 63.4951 1624.58 62.3057C1624.97 61.1162 1625.47 60.0566 1626.05 59.127C1626.64 58.1836 1627.31 57.3838 1628.06 56.7275C1628.83 56.0576 1629.66 55.5518 1630.55 55.21C1631.43 54.8682 1632.36 54.6973 1633.33 54.6973C1634.91 54.6973 1636.14 54.9229 1637.05 55.374C1637.95 55.8252 1638.8 56.3447 1639.61 56.9326L1637.52 59.7422C1637.12 59.3867 1636.6 59.0449 1635.96 58.7168C1635.33 58.375 1634.58 58.2041 1633.7 58.2041C1632.9 58.2041 1632.19 58.375 1631.57 58.7168C1630.97 59.0586 1630.44 59.5713 1629.99 60.2549C1629.55 60.9248 1629.19 61.7588 1628.9 62.7568C1628.62 63.7412 1628.41 64.8828 1628.27 66.1816ZM1661.03 70.6934L1665.95 52.8105H1672.12L1664.64 75H1660.91L1661.03 70.6934ZM1657.65 52.8105L1662.59 70.7139L1662.69 75H1658.94L1651.45 52.8105H1657.65ZM1681.1 57.4043V75H1675.17V52.8105H1680.73L1681.1 57.4043ZM1680.28 63.126H1678.64C1678.64 61.5811 1678.82 60.1592 1679.19 58.8604C1679.57 57.5479 1680.13 56.4131 1680.85 55.4561C1681.59 54.4854 1682.5 53.7334 1683.58 53.2002C1684.66 52.667 1685.91 52.4004 1687.33 52.4004C1688.31 52.4004 1689.22 52.5508 1690.04 52.8516C1690.86 53.1387 1691.56 53.5967 1692.15 54.2256C1692.75 54.8408 1693.22 55.6475 1693.54 56.6455C1693.87 57.6299 1694.04 58.8125 1694.04 60.1934V75H1688.13V60.8496C1688.13 59.8379 1687.99 59.0586 1687.72 58.5117C1687.45 57.9648 1687.06 57.582 1686.55 57.3633C1686.06 57.1445 1685.46 57.0352 1684.77 57.0352C1684 57.0352 1683.33 57.1924 1682.76 57.5068C1682.2 57.8213 1681.73 58.2588 1681.36 58.8193C1680.99 59.3662 1680.72 60.0088 1680.54 60.7471C1680.36 61.4854 1680.28 62.2783 1680.28 63.126ZM1693.48 62.4492L1691.37 62.7158C1691.37 61.2666 1691.55 59.9199 1691.9 58.6758C1692.27 57.4316 1692.81 56.3379 1693.52 55.3945C1694.25 54.4512 1695.14 53.7197 1696.21 53.2002C1697.28 52.667 1698.51 52.4004 1699.9 52.4004C1700.97 52.4004 1701.94 52.5576 1702.81 52.8721C1703.69 53.1729 1704.43 53.6582 1705.05 54.3281C1705.68 54.9844 1706.16 55.8457 1706.48 56.9121C1706.83 57.9785 1707 59.2842 1707 60.8291V75H1701.07V60.8291C1701.07 59.8037 1700.93 59.0244 1700.66 58.4912C1700.4 57.9443 1700.02 57.5684 1699.51 57.3633C1699.02 57.1445 1698.43 57.0352 1697.75 57.0352C1697.04 57.0352 1696.42 57.1787 1695.88 57.4658C1695.35 57.7393 1694.9 58.1221 1694.55 58.6143C1694.19 59.1064 1693.93 59.6807 1693.75 60.3369C1693.57 60.9795 1693.48 61.6836 1693.48 62.4492ZM1723.99 68.8682C1723.99 68.4443 1723.86 68.0615 1723.62 67.7197C1723.37 67.3779 1722.91 67.0635 1722.24 66.7764C1721.59 66.4756 1720.64 66.2021 1719.39 65.9561C1718.27 65.71 1717.23 65.4023 1716.26 65.0332C1715.3 64.6504 1714.47 64.1924 1713.75 63.6592C1713.06 63.126 1712.51 62.4971 1712.11 61.7725C1711.72 61.0342 1711.52 60.1934 1711.52 59.25C1711.52 58.3203 1711.72 57.4453 1712.11 56.625C1712.52 55.8047 1713.1 55.0801 1713.86 54.4512C1714.62 53.8086 1715.55 53.3096 1716.65 52.9541C1717.75 52.585 1719 52.4004 1720.38 52.4004C1722.31 52.4004 1723.96 52.708 1725.34 53.3232C1726.74 53.9385 1727.8 54.7861 1728.54 55.8662C1729.29 56.9326 1729.67 58.1494 1729.67 59.5166H1723.76C1723.76 58.9424 1723.64 58.4297 1723.39 57.9785C1723.16 57.5137 1722.79 57.1514 1722.29 56.8916C1721.79 56.6182 1721.15 56.4814 1720.36 56.4814C1719.7 56.4814 1719.13 56.5977 1718.66 56.8301C1718.18 57.0488 1717.81 57.3496 1717.55 57.7324C1717.3 58.1016 1717.18 58.5117 1717.18 58.9629C1717.18 59.3047 1717.25 59.6123 1717.38 59.8857C1717.53 60.1455 1717.77 60.3848 1718.1 60.6035C1718.43 60.8223 1718.85 61.0273 1719.37 61.2188C1719.91 61.3965 1720.56 61.5605 1721.34 61.7109C1722.94 62.0391 1724.37 62.4697 1725.63 63.0029C1726.89 63.5225 1727.88 64.2334 1728.62 65.1357C1729.36 66.0244 1729.73 67.1934 1729.73 68.6426C1729.73 69.627 1729.51 70.5293 1729.07 71.3496C1728.64 72.1699 1728.01 72.8877 1727.19 73.5029C1726.37 74.1045 1725.38 74.5762 1724.23 74.918C1723.1 75.2461 1721.82 75.4102 1720.4 75.4102C1718.33 75.4102 1716.58 75.041 1715.15 74.3027C1713.73 73.5645 1712.65 72.6279 1711.91 71.4932C1711.18 70.3447 1710.82 69.1689 1710.82 67.9658H1716.42C1716.45 68.7725 1716.65 69.4219 1717.04 69.9141C1717.43 70.4062 1717.93 70.7617 1718.53 70.9805C1719.15 71.1992 1719.81 71.3086 1720.52 71.3086C1721.29 71.3086 1721.92 71.2061 1722.43 71.001C1722.93 70.7822 1723.32 70.4951 1723.58 70.1396C1723.85 69.7705 1723.99 69.3467 1723.99 68.8682ZM1733.04 64.1309V63.7002C1733.04 62.0732 1733.27 60.5762 1733.74 59.209C1734.2 57.8281 1734.88 56.6318 1735.77 55.6201C1736.66 54.6084 1737.75 53.8223 1739.05 53.2617C1740.35 52.6875 1741.84 52.4004 1743.52 52.4004C1745.2 52.4004 1746.7 52.6875 1748.01 53.2617C1749.32 53.8223 1750.43 54.6084 1751.31 55.6201C1752.22 56.6318 1752.9 57.8281 1753.36 59.209C1753.83 60.5762 1754.06 62.0732 1754.06 63.7002V64.1309C1754.06 65.7441 1753.83 67.2412 1753.36 68.6221C1752.9 69.9893 1752.22 71.1855 1751.31 72.2109C1750.43 73.2227 1749.33 74.0088 1748.03 74.5693C1746.73 75.1299 1745.24 75.4102 1743.56 75.4102C1741.88 75.4102 1740.38 75.1299 1739.07 74.5693C1737.77 74.0088 1736.67 73.2227 1735.77 72.2109C1734.88 71.1855 1734.2 69.9893 1733.74 68.6221C1733.27 67.2412 1733.04 65.7441 1733.04 64.1309ZM1738.95 63.7002V64.1309C1738.95 65.0605 1739.03 65.9287 1739.19 66.7354C1739.36 67.542 1739.62 68.2529 1739.97 68.8682C1740.34 69.4697 1740.82 69.9414 1741.41 70.2832C1742 70.625 1742.71 70.7959 1743.56 70.7959C1744.38 70.7959 1745.09 70.625 1745.67 70.2832C1746.26 69.9414 1746.73 69.4697 1747.09 68.8682C1747.44 68.2529 1747.7 67.542 1747.87 66.7354C1748.05 65.9287 1748.14 65.0605 1748.14 64.1309V63.7002C1748.14 62.7979 1748.05 61.9502 1747.87 61.1572C1747.7 60.3506 1747.44 59.6396 1747.07 59.0244C1746.71 58.3955 1746.24 57.9033 1745.65 57.5479C1745.07 57.1924 1744.35 57.0146 1743.52 57.0146C1742.69 57.0146 1741.98 57.1924 1741.39 57.5479C1740.81 57.9033 1740.34 58.3955 1739.97 59.0244C1739.62 59.6396 1739.36 60.3506 1739.19 61.1572C1739.03 61.9502 1738.95 62.7979 1738.95 63.7002ZM1764.35 43.5V75H1758.42V43.5H1764.35ZM1782.77 69.6885V52.8105H1788.68V75H1783.12L1782.77 69.6885ZM1783.43 65.1357L1785.17 65.0947C1785.17 66.5713 1785 67.9453 1784.66 69.2168C1784.32 70.4746 1783.8 71.5684 1783.12 72.498C1782.44 73.4141 1781.58 74.1318 1780.54 74.6514C1779.5 75.1572 1778.27 75.4102 1776.87 75.4102C1775.79 75.4102 1774.79 75.2598 1773.87 74.959C1772.97 74.6445 1772.19 74.1592 1771.53 73.5029C1770.89 72.833 1770.39 71.9785 1770.02 70.9395C1769.66 69.8867 1769.48 68.6221 1769.48 67.1455V52.8105H1775.39V67.1865C1775.39 67.8428 1775.46 68.3965 1775.61 68.8477C1775.78 69.2988 1776 69.668 1776.29 69.9551C1776.58 70.2422 1776.91 70.4473 1777.3 70.5703C1777.69 70.6934 1778.13 70.7549 1778.61 70.7549C1779.83 70.7549 1780.78 70.5088 1781.48 70.0166C1782.19 69.5244 1782.69 68.8545 1782.98 68.0068C1783.28 67.1455 1783.43 66.1885 1783.43 65.1357ZM1802.78 70.7959C1803.5 70.7959 1804.14 70.6592 1804.7 70.3857C1805.27 70.0986 1805.7 69.7021 1806.02 69.1963C1806.35 68.6768 1806.52 68.0684 1806.53 67.3711H1812.09C1812.07 68.9297 1811.66 70.3174 1810.84 71.5342C1810.02 72.7373 1808.92 73.6875 1807.53 74.3848C1806.15 75.0684 1804.61 75.4102 1802.9 75.4102C1801.18 75.4102 1799.67 75.123 1798.39 74.5488C1797.12 73.9746 1796.06 73.1816 1795.21 72.1699C1794.36 71.1445 1793.73 69.9551 1793.3 68.6016C1792.88 67.2344 1792.67 65.7715 1792.67 64.2129V63.6182C1792.67 62.0459 1792.88 60.583 1793.3 59.2295C1793.73 57.8623 1794.36 56.6729 1795.21 55.6611C1796.06 54.6357 1797.12 53.8359 1798.39 53.2617C1799.66 52.6875 1801.15 52.4004 1802.86 52.4004C1804.68 52.4004 1806.27 52.749 1807.64 53.4463C1809.02 54.1436 1810.1 55.1416 1810.88 56.4404C1811.67 57.7256 1812.07 59.25 1812.09 61.0137H1806.53C1806.52 60.2754 1806.36 59.6055 1806.06 59.0039C1805.77 58.4023 1805.35 57.9238 1804.79 57.5684C1804.24 57.1992 1803.56 57.0146 1802.76 57.0146C1801.9 57.0146 1801.19 57.1992 1800.64 57.5684C1800.1 57.9238 1799.67 58.416 1799.37 59.0449C1799.07 59.6602 1798.86 60.3643 1798.74 61.1572C1798.63 61.9365 1798.57 62.7568 1798.57 63.6182V64.2129C1798.57 65.0742 1798.63 65.9014 1798.74 66.6943C1798.85 67.4873 1799.05 68.1914 1799.35 68.8066C1799.67 69.4219 1800.1 69.9072 1800.64 70.2627C1801.19 70.6182 1801.9 70.7959 1802.78 70.7959ZM1822.17 52.8105V75H1816.24V52.8105H1822.17ZM1815.87 47.0273C1815.87 46.166 1816.17 45.4551 1816.77 44.8945C1817.37 44.334 1818.18 44.0537 1819.19 44.0537C1820.19 44.0537 1820.99 44.334 1821.59 44.8945C1822.21 45.4551 1822.52 46.166 1822.52 47.0273C1822.52 47.8887 1822.21 48.5996 1821.59 49.1602C1820.99 49.7207 1820.19 50.001 1819.19 50.001C1818.18 50.001 1817.37 49.7207 1816.77 49.1602C1816.17 48.5996 1815.87 47.8887 1815.87 47.0273ZM1826.52 64.1309V63.7002C1826.52 62.0732 1826.76 60.5762 1827.22 59.209C1827.69 57.8281 1828.36 56.6318 1829.25 55.6201C1830.14 54.6084 1831.23 53.8223 1832.53 53.2617C1833.83 52.6875 1835.32 52.4004 1837 52.4004C1838.69 52.4004 1840.18 52.6875 1841.49 53.2617C1842.81 53.8223 1843.91 54.6084 1844.8 55.6201C1845.7 56.6318 1846.38 57.8281 1846.85 59.209C1847.31 60.5762 1847.54 62.0732 1847.54 63.7002V64.1309C1847.54 65.7441 1847.31 67.2412 1846.85 68.6221C1846.38 69.9893 1845.7 71.1855 1844.8 72.2109C1843.91 73.2227 1842.81 74.0088 1841.52 74.5693C1840.22 75.1299 1838.73 75.4102 1837.04 75.4102C1835.36 75.4102 1833.87 75.1299 1832.55 74.5693C1831.25 74.0088 1830.15 73.2227 1829.25 72.2109C1828.36 71.1855 1827.69 69.9893 1827.22 68.6221C1826.76 67.2412 1826.52 65.7441 1826.52 64.1309ZM1832.43 63.7002V64.1309C1832.43 65.0605 1832.51 65.9287 1832.68 66.7354C1832.84 67.542 1833.1 68.2529 1833.46 68.8682C1833.83 69.4697 1834.3 69.9414 1834.89 70.2832C1835.48 70.625 1836.2 70.7959 1837.04 70.7959C1837.87 70.7959 1838.57 70.625 1839.16 70.2832C1839.74 69.9414 1840.22 69.4697 1840.57 68.8682C1840.93 68.2529 1841.19 67.542 1841.35 66.7354C1841.53 65.9287 1841.62 65.0605 1841.62 64.1309V63.7002C1841.62 62.7979 1841.53 61.9502 1841.35 61.1572C1841.19 60.3506 1840.92 59.6396 1840.55 59.0244C1840.2 58.3955 1839.72 57.9033 1839.14 57.5479C1838.55 57.1924 1837.84 57.0146 1837 57.0146C1836.17 57.0146 1835.46 57.1924 1834.87 57.5479C1834.3 57.9033 1833.83 58.3955 1833.46 59.0244C1833.1 59.6396 1832.84 60.3506 1832.68 61.1572C1832.51 61.9502 1832.43 62.7979 1832.43 63.7002ZM1857.38 57.5479V75H1851.47V52.8105H1857.01L1857.38 57.5479ZM1856.52 63.126H1854.92C1854.92 61.4854 1855.13 60.0088 1855.55 58.6963C1855.98 57.3701 1856.57 56.2422 1857.34 55.3125C1858.1 54.3691 1859.01 53.6514 1860.06 53.1592C1861.13 52.6533 1862.32 52.4004 1863.63 52.4004C1864.67 52.4004 1865.62 52.5508 1866.48 52.8516C1867.34 53.1523 1868.08 53.6309 1868.7 54.2871C1869.33 54.9434 1869.81 55.8115 1870.13 56.8916C1870.48 57.9717 1870.65 59.291 1870.65 60.8496V75H1864.7V60.8291C1864.7 59.8447 1864.56 59.0791 1864.29 58.5322C1864.02 57.9854 1863.61 57.6025 1863.08 57.3838C1862.56 57.1514 1861.92 57.0352 1861.15 57.0352C1860.36 57.0352 1859.67 57.1924 1859.08 57.5068C1858.51 57.8213 1858.03 58.2588 1857.64 58.8193C1857.28 59.3662 1857 60.0088 1856.8 60.7471C1856.61 61.4854 1856.52 62.2783 1856.52 63.126ZM1885.77 75.4102C1884.05 75.4102 1882.5 75.1367 1881.14 74.5898C1879.77 74.0293 1878.61 73.2568 1877.65 72.2725C1876.71 71.2881 1875.98 70.1465 1875.48 68.8477C1874.97 67.5352 1874.72 66.1406 1874.72 64.6641V63.8438C1874.72 62.1621 1874.96 60.624 1875.43 59.2295C1875.91 57.835 1876.6 56.625 1877.49 55.5996C1878.39 54.5742 1879.48 53.7881 1880.77 53.2412C1882.05 52.6807 1883.5 52.4004 1885.11 52.4004C1886.69 52.4004 1888.08 52.6602 1889.3 53.1797C1890.51 53.6992 1891.53 54.4375 1892.35 55.3945C1893.19 56.3516 1893.82 57.5 1894.24 58.8398C1894.66 60.166 1894.88 61.6426 1894.88 63.2695V65.7305H1877.24V61.793H1889.07V61.3418C1889.07 60.5215 1888.92 59.79 1888.62 59.1475C1888.33 58.4912 1887.9 57.9717 1887.31 57.5889C1886.72 57.2061 1885.97 57.0146 1885.05 57.0146C1884.27 57.0146 1883.6 57.1855 1883.04 57.5273C1882.48 57.8691 1882.02 58.3477 1881.67 58.9629C1881.33 59.5781 1881.07 60.3027 1880.89 61.1367C1880.73 61.957 1880.64 62.8594 1880.64 63.8438V64.6641C1880.64 65.5527 1880.77 66.373 1881.01 67.125C1881.27 67.877 1881.63 68.5264 1882.1 69.0732C1882.58 69.6201 1883.15 70.0439 1883.82 70.3447C1884.51 70.6455 1885.28 70.7959 1886.14 70.7959C1887.21 70.7959 1888.2 70.5908 1889.11 70.1807C1890.04 69.7568 1890.84 69.1211 1891.51 68.2734L1894.38 71.3906C1893.92 72.0605 1893.28 72.7031 1892.48 73.3184C1891.68 73.9336 1890.73 74.4395 1889.61 74.8359C1888.48 75.2188 1887.21 75.4102 1885.77 75.4102ZM1910.66 68.8682C1910.66 68.4443 1910.53 68.0615 1910.29 67.7197C1910.04 67.3779 1909.58 67.0635 1908.91 66.7764C1908.26 66.4756 1907.31 66.2021 1906.06 65.9561C1904.94 65.71 1903.9 65.4023 1902.92 65.0332C1901.97 64.6504 1901.13 64.1924 1900.42 63.6592C1899.73 63.126 1899.18 62.4971 1898.78 61.7725C1898.39 61.0342 1898.19 60.1934 1898.19 59.25C1898.19 58.3203 1898.39 57.4453 1898.78 56.625C1899.19 55.8047 1899.77 55.0801 1900.53 54.4512C1901.29 53.8086 1902.22 53.3096 1903.31 52.9541C1904.42 52.585 1905.67 52.4004 1907.05 52.4004C1908.97 52.4004 1910.63 52.708 1912.01 53.3232C1913.4 53.9385 1914.47 54.7861 1915.21 55.8662C1915.96 56.9326 1916.34 58.1494 1916.34 59.5166H1910.43C1910.43 58.9424 1910.31 58.4297 1910.06 57.9785C1909.83 57.5137 1909.46 57.1514 1908.95 56.8916C1908.46 56.6182 1907.82 56.4814 1907.03 56.4814C1906.37 56.4814 1905.8 56.5977 1905.32 56.8301C1904.85 57.0488 1904.48 57.3496 1904.22 57.7324C1903.97 58.1016 1903.85 58.5117 1903.85 58.9629C1903.85 59.3047 1903.92 59.6123 1904.05 59.8857C1904.2 60.1455 1904.44 60.3848 1904.77 60.6035C1905.1 60.8223 1905.52 61.0273 1906.04 61.2188C1906.58 61.3965 1907.23 61.5605 1908.01 61.7109C1909.61 62.0391 1911.04 62.4697 1912.3 63.0029C1913.55 63.5225 1914.55 64.2334 1915.29 65.1357C1916.03 66.0244 1916.4 67.1934 1916.4 68.6426C1916.4 69.627 1916.18 70.5293 1915.74 71.3496C1915.3 72.1699 1914.68 72.8877 1913.86 73.5029C1913.04 74.1045 1912.05 74.5762 1910.9 74.918C1909.77 75.2461 1908.49 75.4102 1907.07 75.4102C1905 75.4102 1903.25 75.041 1901.82 74.3027C1900.4 73.5645 1899.32 72.6279 1898.58 71.4932C1897.85 70.3447 1897.49 69.1689 1897.49 67.9658H1903.09C1903.12 68.7725 1903.32 69.4219 1903.7 69.9141C1904.1 70.4062 1904.6 70.7617 1905.2 70.9805C1905.82 71.1992 1906.48 71.3086 1907.19 71.3086C1907.96 71.3086 1908.59 71.2061 1909.1 71.001C1909.6 70.7822 1909.99 70.4951 1910.25 70.1396C1910.52 69.7705 1910.66 69.3467 1910.66 68.8682ZM1920.94 72.1494C1920.94 71.2744 1921.24 70.543 1921.84 69.9551C1922.46 69.3672 1923.27 69.0732 1924.28 69.0732C1925.3 69.0732 1926.1 69.3672 1926.7 69.9551C1927.32 70.543 1927.63 71.2744 1927.63 72.1494C1927.63 73.0244 1927.32 73.7559 1926.7 74.3438C1926.1 74.9316 1925.3 75.2256 1924.28 75.2256C1923.27 75.2256 1922.46 74.9316 1921.84 74.3438C1921.24 73.7559 1920.94 73.0244 1920.94 72.1494ZM1939.04 57.5479V75H1933.13V52.8105H1938.67L1939.04 57.5479ZM1938.18 63.126H1936.58C1936.58 61.4854 1936.79 60.0088 1937.21 58.6963C1937.64 57.3701 1938.23 56.2422 1939 55.3125C1939.76 54.3691 1940.67 53.6514 1941.72 53.1592C1942.79 52.6533 1943.98 52.4004 1945.29 52.4004C1946.33 52.4004 1947.28 52.5508 1948.14 52.8516C1949.01 53.1523 1949.74 53.6309 1950.36 54.2871C1950.99 54.9434 1951.47 55.8115 1951.79 56.8916C1952.14 57.9717 1952.31 59.291 1952.31 60.8496V75H1946.36V60.8291C1946.36 59.8447 1946.22 59.0791 1945.95 58.5322C1945.68 57.9854 1945.27 57.6025 1944.74 57.3838C1944.22 57.1514 1943.58 57.0352 1942.81 57.0352C1942.02 57.0352 1941.33 57.1924 1940.74 57.5068C1940.17 57.8213 1939.69 58.2588 1939.3 58.8193C1938.94 59.3662 1938.66 60.0088 1938.46 60.7471C1938.27 61.4854 1938.18 62.2783 1938.18 63.126ZM1967.43 75.4102C1965.71 75.4102 1964.16 75.1367 1962.8 74.5898C1961.43 74.0293 1960.27 73.2568 1959.31 72.2725C1958.37 71.2881 1957.64 70.1465 1957.14 68.8477C1956.63 67.5352 1956.38 66.1406 1956.38 64.6641V63.8438C1956.38 62.1621 1956.62 60.624 1957.1 59.2295C1957.57 57.835 1958.26 56.625 1959.15 55.5996C1960.05 54.5742 1961.14 53.7881 1962.43 53.2412C1963.71 52.6807 1965.16 52.4004 1966.77 52.4004C1968.35 52.4004 1969.74 52.6602 1970.96 53.1797C1972.18 53.6992 1973.19 54.4375 1974.01 55.3945C1974.85 56.3516 1975.48 57.5 1975.9 58.8398C1976.32 60.166 1976.54 61.6426 1976.54 63.2695V65.7305H1958.9V61.793H1970.73V61.3418C1970.73 60.5215 1970.58 59.79 1970.28 59.1475C1969.99 58.4912 1969.56 57.9717 1968.97 57.5889C1968.38 57.2061 1967.63 57.0146 1966.71 57.0146C1965.93 57.0146 1965.26 57.1855 1964.7 57.5273C1964.14 57.8691 1963.68 58.3477 1963.33 58.9629C1962.99 59.5781 1962.73 60.3027 1962.55 61.1367C1962.39 61.957 1962.3 62.8594 1962.3 63.8438V64.6641C1962.3 65.5527 1962.43 66.373 1962.67 67.125C1962.93 67.877 1963.3 68.5264 1963.76 69.0732C1964.24 69.6201 1964.81 70.0439 1965.48 70.3447C1966.17 70.6455 1966.94 70.7959 1967.8 70.7959C1968.87 70.7959 1969.86 70.5908 1970.77 70.1807C1971.7 69.7568 1972.5 69.1211 1973.17 68.2734L1976.04 71.3906C1975.58 72.0605 1974.94 72.7031 1974.14 73.3184C1973.34 73.9336 1972.39 74.4395 1971.27 74.8359C1970.14 75.2188 1968.87 75.4102 1967.43 75.4102ZM1991.19 52.8105V56.9941H1978.27V52.8105H1991.19ZM1981.47 47.335H1987.37V68.3145C1987.37 68.957 1987.46 69.4492 1987.62 69.791C1987.8 70.1328 1988.06 70.3721 1988.4 70.5088C1988.74 70.6318 1989.17 70.6934 1989.69 70.6934C1990.06 70.6934 1990.39 70.6797 1990.68 70.6523C1990.98 70.6113 1991.23 70.5703 1991.43 70.5293L1991.46 74.877C1990.95 75.041 1990.4 75.1709 1989.81 75.2666C1989.23 75.3623 1988.58 75.4102 1987.87 75.4102C1986.57 75.4102 1985.43 75.1982 1984.46 74.7744C1983.51 74.3369 1982.77 73.6396 1982.25 72.6826C1981.73 71.7256 1981.47 70.4678 1981.47 68.9092V47.335Z" fill="white"/>
<path d="M1438.77 82.8334C1437.47 82.8334 1436.34 82.4147 1435.36 81.5772C1434.39 80.7397 1433.9 79.7626 1433.9 78.6459V42.3542C1433.9 41.2376 1434.39 40.2605 1435.36 39.423C1436.34 38.5855 1437.47 38.1667 1438.77 38.1667H1493.92C1495.21 38.1667 1496.35 38.5855 1497.32 39.423C1498.3 40.2605 1498.78 41.2376 1498.78 42.3542V78.6459C1498.78 79.7626 1498.3 80.7397 1497.32 81.5772C1496.35 82.4147 1495.21 82.8334 1493.92 82.8334H1438.77ZM1466.34 61.7563L1493.92 46.1928V42.3542L1466.34 57.5688L1438.77 42.3542V46.1928L1466.34 61.7563Z" fill="white"/>
</g>
<defs>
<filter id="filter0_d_28_83" x="0.5" y="0.5" width="2029" height="130" filterUnits="userSpaceOnUse" color-interpolation-filters="sRGB">
<feFlood flood-opacity="0" result="BackgroundImageFix"/>
<feColorMatrix in="SourceAlpha" type="matrix" values="0 0 0 0 0 0 0 0 0 0 0 0 0 0 0 0 0 0 127 0" result="hardAlpha"/>
<feOffset dy="4"/>
<feGaussianBlur stdDeviation="2"/>
<feComposite in2="hardAlpha" operator="out"/>
<feColorMatrix type="matrix" values="0 0 0 0 0 0 0 0 0 0 0 0 0 0 0 0 0 0 0.25 0"/>
<feBlend mode="normal" in2="BackgroundImageFix" result="effect1_dropShadow_28_83"/>
<feBlend mode="normal" in="SourceGraphic" in2="effect1_dropShadow_28_83" result="shape"/>
</filter>
<clipPath id="clip0_28_83">
<rect width="77.8542" height="70" fill="white" transform="translate(92.323 27)"/>
</clipPath>
</defs>
</svg>
