<svg width="88" height="88" viewBox="0 0 88 88" fill="white" xmlns="http://www.w3.org/2000/svg">
<path d="M39.6 88V80.6667H77V43.5111C77 38.7852 76.0833 34.2426 74.25 29.8833C72.4167 25.5241 69.96 21.6741 66.88 18.3333C63.8 14.9926 60.28 12.3241 56.32 10.3278C52.36 8.33148 48.2533 7.33333 44 7.33333C39.7467 7.33333 35.64 8.33148 31.68 10.3278C27.72 12.3241 24.2 14.9926 21.12 18.3333C18.04 21.6741 15.5833 25.5241 13.75 29.8833C11.9167 34.2426 11 38.7852 11 43.5111V73.3333H8.8C6.38 73.3333 4.30833 72.3759 2.585 70.4611C0.861667 68.5463 0 66.2444 0 63.5556V53.7778C0 51.9037 0.403333 50.2537 1.21 48.8278C2.01667 47.4019 3.08 46.2407 4.4 45.3444L4.73 38.8667C5.39 32.9185 6.91167 27.5407 9.295 22.7333C11.6783 17.9259 14.6483 13.8519 18.205 10.5111C21.7617 7.17037 25.7583 4.58333 30.195 2.75C34.6317 0.916667 39.2333 0 44 0C48.84 0 53.4783 0.916667 57.915 2.75C62.3517 4.58333 66.33 7.19074 69.85 10.5722C73.37 13.9537 76.3217 18.0278 78.705 22.7944C81.0883 27.5611 82.61 32.8778 83.27 38.7444L83.6 45.1C84.92 45.8333 85.9833 46.913 86.79 48.3389C87.5967 49.7648 88 51.3333 88 53.0444V64.2889C88 66.0815 87.5967 67.6704 86.79 69.0556C85.9833 70.4407 84.92 71.5 83.6 72.2333V80.6667C83.6 82.6833 82.9538 84.4097 81.6612 85.8458C80.3688 87.2819 78.815 88 77 88H39.6ZM30.8 52.5556C29.92 52.5556 29.15 52.1889 28.49 51.4556C27.83 50.7222 27.5 49.8463 27.5 48.8278C27.5 47.8093 27.83 46.9537 28.49 46.2611C29.15 45.5685 29.9383 45.2222 30.855 45.2222C31.7717 45.2222 32.5417 45.5736 33.165 46.2764C33.7883 46.9792 34.1 47.85 34.1 48.8889C34.1 49.8667 33.7837 50.7222 33.1512 51.4556C32.5187 52.1889 31.735 52.5556 30.8 52.5556ZM57.2 52.5556C56.32 52.5556 55.55 52.1889 54.89 51.4556C54.23 50.7222 53.9 49.8463 53.9 48.8278C53.9 47.8093 54.23 46.9537 54.89 46.2611C55.55 45.5685 56.3383 45.2222 57.255 45.2222C58.1717 45.2222 58.9417 45.5736 59.565 46.2764C60.1883 46.9792 60.5 47.85 60.5 48.8889C60.5 49.8667 60.1838 50.7222 59.5513 51.4556C58.9188 52.1889 58.135 52.5556 57.2 52.5556ZM17.71 46.2C17.4167 41.3926 18.0217 37.0333 19.525 33.1222C21.0283 29.2111 23.045 25.8907 25.575 23.1611C28.105 20.4315 31.02 18.3333 34.32 16.8667C37.62 15.4 40.92 14.6667 44.22 14.6667C50.8933 14.6667 56.5033 17.0093 61.05 21.6944C65.5967 26.3796 68.3833 32.2259 69.41 39.2333C62.5167 39.1519 56.4483 37.0944 51.205 33.0611C45.9617 29.0278 41.91 23.7926 39.05 17.3556C37.8767 23.9556 35.4017 29.8019 31.625 34.8944C27.8483 39.987 23.21 43.7556 17.71 46.2Z" fill="white"/>
</svg>
