<svg width="88" height="88" viewBox="0 0 88 88" fill="white" xmlns="http://www.w3.org/2000/svg">
<g clip-path="url(#clip0_10_260)">
<path d="M30.8333 88.3333C29.3208 88.3333 28.026 87.7948 26.949 86.7177C25.8719 85.6406 25.3333 84.3458 25.3333 82.8333H40.9167V66.2417C34.3778 65.3861 28.9236 62.5444 24.5542 57.7167C20.1847 52.8889 18 47.2056 18 40.6667C18 33.5167 20.4903 27.4514 25.4708 22.4708C30.4514 17.4903 36.5167 15 43.6667 15C50.8167 15 56.8819 17.4903 61.8625 22.4708C66.8431 27.4514 69.3333 33.5167 69.3333 40.6667C69.3333 47.2056 67.1486 52.8889 62.7792 57.7167C58.4097 62.5444 52.9556 65.3861 46.4167 66.2417V82.8333H62C62 84.3458 61.4615 85.6406 60.3844 86.7177C59.3073 87.7948 58.0125 88.3333 56.5 88.3333H30.8333ZM43.6667 60.8333C49.2889 60.8333 54.0556 58.8778 57.9667 54.9667C61.8778 51.0556 63.8333 46.2889 63.8333 40.6667C63.8333 35.0444 61.8778 30.2778 57.9667 26.3667C54.0556 22.4556 49.2889 20.5 43.6667 20.5C38.0444 20.5 33.2778 22.4556 29.3667 26.3667C25.4556 30.2778 23.5 35.0444 23.5 40.6667C23.5 46.2889 25.4556 51.0556 29.3667 54.9667C33.2778 58.8778 38.0444 60.8333 43.6667 60.8333ZM43.6667 49.8333C41.1 49.8333 38.9306 48.9472 37.1583 47.175C35.3861 45.4028 34.5 43.2333 34.5 40.6667C34.5 38.1 35.3861 35.9306 37.1583 34.1583C38.9306 32.3861 41.1 31.5 43.6667 31.5C46.2333 31.5 48.4028 32.3861 50.175 34.1583C51.9472 35.9306 52.8333 38.1 52.8333 40.6667C52.8333 43.2333 51.9472 45.4028 50.175 47.175C48.4028 48.9472 46.2333 49.8333 43.6667 49.8333Z" fill="white"/>
</g>
<defs>
<clipPath id="clip0_10_260">
<rect width="88" height="88" fill="white"/>
</clipPath>
</defs>
</svg>
