<svg width="292" height="234" viewBox="0 0 292 234" fill="none" xmlns="http://www.w3.org/2000/svg">
<path d="M138.52 172V49.6H163.17L207.54 102.47L251.74 49.6H276.56V172H253.95V82.24L207.54 137.49L160.96 82.41V172H138.52Z" fill="#27B179"/>
<g clip-path="url(#clip0_136_25)">
<path d="M72.4095 144.961L57.9276 171.885L0 49.7054H26.0674L72.4095 144.961Z" fill="#27B179"/>
<path d="M91.7188 104.482H68.5477L94.6152 49.7054H117.786L91.7188 104.482Z" fill="#142B57"/>
</g>
<path d="M33.4559 219.76C32.4199 219.76 31.4679 219.508 30.5999 219.004C29.7599 218.5 29.0879 217.814 28.5839 216.946C28.0799 216.078 27.8279 215.126 27.8279 214.09V212.074H32.8679V213.922C32.8679 214.146 32.9379 214.328 33.0779 214.468C33.2179 214.608 33.3999 214.678 33.6239 214.678H52.1879C52.4119 214.678 52.5939 214.608 52.7339 214.468C52.9019 214.328 52.9859 214.146 52.9859 213.922V207.916C52.9859 207.72 52.9019 207.552 52.7339 207.412C52.5939 207.244 52.4119 207.16 52.1879 207.16H33.4559C32.4199 207.16 31.4679 206.908 30.5999 206.404C29.7599 205.9 29.0879 205.228 28.5839 204.388C28.0799 203.52 27.8279 202.568 27.8279 201.532V195.19C27.8279 194.154 28.0799 193.202 28.5839 192.334C29.0879 191.466 29.7599 190.78 30.5999 190.276C31.4679 189.772 32.4199 189.52 33.4559 189.52H52.3979C53.4339 189.52 54.3719 189.772 55.2119 190.276C56.0799 190.78 56.7659 191.466 57.2699 192.334C57.8019 193.202 58.0679 194.154 58.0679 195.19V197.206H52.9859V195.358C52.9859 195.134 52.9019 194.952 52.7339 194.812C52.5939 194.672 52.4119 194.602 52.1879 194.602H33.6239C33.3999 194.602 33.2179 194.672 33.0779 194.812C32.9379 194.952 32.8679 195.134 32.8679 195.358V201.364C32.8679 201.56 32.9379 201.742 33.0779 201.91C33.2179 202.05 33.3999 202.12 33.6239 202.12H52.3979C53.4339 202.12 54.3719 202.372 55.2119 202.876C56.0799 203.38 56.7659 204.066 57.2699 204.934C57.8019 205.774 58.0679 206.712 58.0679 207.748V214.09C58.0679 215.126 57.8019 216.078 57.2699 216.946C56.7659 217.814 56.0799 218.5 55.2119 219.004C54.3719 219.508 53.4339 219.76 52.3979 219.76H33.4559ZM68.0301 219.76C66.9941 219.76 66.0561 219.508 65.2161 219.004C64.3761 218.472 63.6901 217.786 63.1581 216.946C62.6541 216.106 62.4021 215.168 62.4021 214.132V201.028C62.4021 199.992 62.6541 199.054 63.1581 198.214C63.6901 197.374 64.3761 196.702 65.2161 196.198C66.0561 195.666 66.9941 195.4 68.0301 195.4H81.5121C82.5761 195.4 83.5281 195.666 84.3681 196.198C85.2081 196.702 85.8801 197.374 86.3841 198.214C86.8881 199.054 87.1401 199.992 87.1401 201.028V214.132C87.1401 215.168 86.8881 216.106 86.3841 216.946C85.8801 217.786 85.2081 218.472 84.3681 219.004C83.5281 219.508 82.5761 219.76 81.5121 219.76H68.0301ZM68.1981 214.762H81.3441C81.5681 214.762 81.7501 214.692 81.8901 214.552C82.0581 214.384 82.1421 214.188 82.1421 213.964V201.196C82.1421 200.972 82.0581 200.79 81.8901 200.65C81.7501 200.482 81.5681 200.398 81.3441 200.398H68.1981C67.9741 200.398 67.7781 200.482 67.6101 200.65C67.4701 200.79 67.4001 200.972 67.4001 201.196V213.964C67.4001 214.188 67.4701 214.384 67.6101 214.552C67.7781 214.692 67.9741 214.762 68.1981 214.762ZM96.1678 219.76C95.1318 219.76 94.1938 219.508 93.3538 219.004C92.5138 218.472 91.8278 217.786 91.2958 216.946C90.7918 216.106 90.5398 215.168 90.5398 214.132V187.378H95.5798V213.964C95.5798 214.188 95.6498 214.384 95.7898 214.552C95.9578 214.692 96.1398 214.762 96.3358 214.762H100.872V219.76H96.1678ZM109.909 219.76C108.873 219.76 107.921 219.508 107.053 219.004C106.213 218.472 105.541 217.786 105.037 216.946C104.533 216.106 104.281 215.168 104.281 214.132V195.4H109.279V213.964C109.279 214.188 109.349 214.384 109.489 214.552C109.657 214.692 109.853 214.762 110.077 214.762H123.223C123.447 214.762 123.629 214.692 123.769 214.552C123.937 214.384 124.021 214.188 124.021 213.964V195.4H129.019V214.132C129.019 215.168 128.767 216.106 128.263 216.946C127.759 217.786 127.087 218.472 126.247 219.004C125.407 219.508 124.455 219.76 123.391 219.76H109.909ZM138.085 219.76C137.049 219.76 136.111 219.508 135.271 219.004C134.431 218.472 133.745 217.786 133.213 216.946C132.709 216.106 132.457 215.168 132.457 214.132V201.028C132.457 199.992 132.709 199.054 133.213 198.214C133.745 197.374 134.431 196.702 135.271 196.198C136.111 195.666 137.049 195.4 138.085 195.4H157.153V200.398H138.253C138.029 200.398 137.833 200.482 137.665 200.65C137.525 200.79 137.455 200.972 137.455 201.196V213.964C137.455 214.188 137.525 214.384 137.665 214.552C137.833 214.692 138.029 214.762 138.253 214.762H157.195V219.76H138.085ZM161.702 219.76V195.4H166.7V219.76H161.702ZM161.702 192.46V187.42H166.7V192.46H161.702ZM176.475 219.76C175.439 219.76 174.501 219.508 173.661 219.004C172.821 218.472 172.135 217.786 171.603 216.946C171.099 216.106 170.847 215.168 170.847 214.132V201.028C170.847 199.992 171.099 199.054 171.603 198.214C172.135 197.374 172.821 196.702 173.661 196.198C174.501 195.666 175.439 195.4 176.475 195.4H189.957C191.021 195.4 191.973 195.666 192.813 196.198C193.653 196.702 194.325 197.374 194.829 198.214C195.333 199.054 195.585 199.992 195.585 201.028V214.132C195.585 215.168 195.333 216.106 194.829 216.946C194.325 217.786 193.653 218.472 192.813 219.004C191.973 219.508 191.021 219.76 189.957 219.76H176.475ZM176.643 214.762H189.789C190.013 214.762 190.195 214.692 190.335 214.552C190.503 214.384 190.587 214.188 190.587 213.964V201.196C190.587 200.972 190.503 200.79 190.335 200.65C190.195 200.482 190.013 200.398 189.789 200.398H176.643C176.419 200.398 176.223 200.482 176.055 200.65C175.915 200.79 175.845 200.972 175.845 201.196V213.964C175.845 214.188 175.915 214.384 176.055 214.552C176.223 214.692 176.419 214.762 176.643 214.762ZM199.11 219.76V195.4H218.262C219.27 195.4 220.194 195.666 221.034 196.198C221.902 196.702 222.588 197.374 223.092 198.214C223.596 199.054 223.848 199.992 223.848 201.028V219.76H218.85V201.196C218.85 200.972 218.766 200.79 218.598 200.65C218.458 200.482 218.29 200.398 218.094 200.398H204.906C204.71 200.398 204.528 200.482 204.36 200.65C204.192 200.79 204.108 200.972 204.108 201.196V219.76H199.11ZM233.2 219.76C232.164 219.76 231.226 219.508 230.386 219.004C229.546 218.472 228.86 217.786 228.328 216.946C227.824 216.106 227.572 215.168 227.572 214.132V201.028C227.572 199.992 227.824 199.054 228.328 198.214C228.86 197.374 229.546 196.702 230.386 196.198C231.226 195.666 232.164 195.4 233.2 195.4H246.682C247.746 195.4 248.698 195.666 249.538 196.198C250.378 196.702 251.05 197.374 251.554 198.214C252.058 199.054 252.31 199.992 252.31 201.028V210.1H232.57V213.964C232.57 214.188 232.64 214.384 232.78 214.552C232.948 214.692 233.144 214.762 233.368 214.762H252.31V219.76H233.2ZM232.57 205.522H247.312V201.196C247.312 200.972 247.228 200.79 247.06 200.65C246.92 200.482 246.738 200.398 246.514 200.398H233.368C233.144 200.398 232.948 200.482 232.78 200.65C232.64 200.79 232.57 200.972 232.57 201.196V205.522ZM261.949 219.76C260.913 219.76 259.975 219.508 259.135 219.004C258.295 218.472 257.609 217.786 257.077 216.946C256.573 216.106 256.321 215.168 256.321 214.132V213.334H261.319V213.964C261.319 214.188 261.389 214.384 261.529 214.552C261.697 214.692 261.893 214.762 262.117 214.762H275.263C275.487 214.762 275.669 214.692 275.809 214.552C275.977 214.384 276.061 214.188 276.061 213.964V210.856C276.061 210.66 275.977 210.492 275.809 210.352C275.669 210.184 275.487 210.1 275.263 210.1H261.949C260.913 210.1 259.975 209.848 259.135 209.344C258.295 208.812 257.609 208.126 257.077 207.286C256.573 206.446 256.321 205.508 256.321 204.472V201.028C256.321 199.992 256.573 199.054 257.077 198.214C257.609 197.374 258.295 196.702 259.135 196.198C259.975 195.666 260.913 195.4 261.949 195.4H275.431C276.495 195.4 277.447 195.666 278.287 196.198C279.127 196.702 279.799 197.374 280.303 198.214C280.835 199.054 281.101 199.992 281.101 201.028V201.826H276.061V201.196C276.061 200.972 275.977 200.79 275.809 200.65C275.669 200.482 275.487 200.398 275.263 200.398H262.117C261.893 200.398 261.697 200.482 261.529 200.65C261.389 200.79 261.319 200.972 261.319 201.196V204.304C261.319 204.5 261.389 204.682 261.529 204.85C261.697 204.99 261.893 205.06 262.117 205.06H275.431C276.495 205.06 277.447 205.326 278.287 205.858C279.127 206.362 279.799 207.034 280.303 207.874C280.835 208.714 281.101 209.652 281.101 210.688V214.132C281.101 215.168 280.835 216.106 280.303 216.946C279.799 217.786 279.127 218.472 278.287 219.004C277.447 219.508 276.495 219.76 275.431 219.76H261.949Z" fill="#142B57"/>
<defs>
<clipPath id="clip0_136_25">
<rect y="44.1349" width="121.648" height="127.75" rx="12" fill="white"/>
</clipPath>
</defs>
</svg>
